<svg width="319" height="210" viewBox="0 0 319 210" fill="none" xmlns="http://www.w3.org/2000/svg">
<circle cx="7.0065" cy="7.00686" r="7.0065" fill="#F0F0F0"/>
<circle cx="28.8046" cy="7.0065" r="7.0065" fill="#F0F0F0"/>
<circle cx="50.6022" cy="7.0065" r="7.0065" fill="#F0F0F0"/>
<circle cx="72.4005" cy="7.0065" r="7.0065" fill="#F0F0F0"/>
<circle cx="94.1982" cy="7.0065" r="7.0065" fill="#F0F0F0"/>
<circle cx="94.1982" cy="28.8045" r="7.0065" fill="#F0F0F0"/>
<circle cx="72.4005" cy="28.8045" r="7.0065" fill="#F0F0F0"/>
<circle cx="50.6022" cy="28.8045" r="7.0065" fill="#F0F0F0"/>
<circle cx="28.8046" cy="28.8045" r="7.0065" fill="#F0F0F0"/>
<circle cx="7.0065" cy="28.8045" r="7.0065" fill="#F0F0F0"/>
<circle cx="94.1982" cy="50.6026" r="7.0065" fill="#F0F0F0"/>
<circle cx="72.4005" cy="50.6026" r="7.0065" fill="#F0F0F0"/>
<circle cx="50.6022" cy="50.6026" r="7.0065" fill="#F0F0F0"/>
<circle cx="28.8046" cy="50.6026" r="7.0065" fill="#F0F0F0"/>
<circle cx="7.0065" cy="50.6026" r="7.0065" fill="#F0F0F0"/>
<circle cx="94.1982" cy="72.4004" r="7.0065" fill="#F0F0F0"/>
<circle cx="72.4005" cy="72.4004" r="7.0065" fill="#F0F0F0"/>
<circle cx="50.6022" cy="72.4004" r="7.0065" fill="#F0F0F0"/>
<circle cx="28.8046" cy="72.4004" r="7.0065" fill="#F0F0F0"/>
<circle cx="7.0065" cy="72.4004" r="7.0065" fill="#F0F0F0"/>
<circle cx="94.1982" cy="94.1985" r="7.0065" fill="#F0F0F0"/>
<circle cx="72.4005" cy="94.1985" r="7.0065" fill="#F0F0F0"/>
<circle cx="50.6022" cy="94.1985" r="7.0065" fill="#F0F0F0"/>
<circle cx="28.8046" cy="94.1985" r="7.0065" fill="#F0F0F0"/>
<circle cx="7.0065" cy="94.1985" r="7.0065" fill="#F0F0F0"/>
<circle cx="115.802" cy="7.0065" r="7.0065" fill="#F0F0F0"/>
<circle cx="137.6" cy="7.0065" r="7.0065" fill="#F0F0F0"/>
<circle cx="159.398" cy="7.0065" r="7.0065" fill="#F0F0F0"/>
<circle cx="181.196" cy="7.0065" r="7.0065" fill="#F0F0F0"/>
<circle cx="202.994" cy="7.0065" r="7.0065" fill="#F0F0F0"/>
<circle cx="202.994" cy="28.8045" r="7.0065" fill="#F0F0F0"/>
<circle cx="181.196" cy="28.8045" r="7.0065" fill="#F0F0F0"/>
<circle cx="159.398" cy="28.8045" r="7.0065" fill="#F0F0F0"/>
<circle cx="137.6" cy="28.8045" r="7.0065" fill="#F0F0F0"/>
<circle cx="115.802" cy="28.8045" r="7.0065" fill="#F0F0F0"/>
<circle cx="202.994" cy="50.6026" r="7.0065" fill="#F0F0F0"/>
<circle cx="181.196" cy="50.6026" r="7.0065" fill="#F0F0F0"/>
<circle cx="159.398" cy="50.6026" r="7.0065" fill="#F0F0F0"/>
<circle cx="137.6" cy="50.6026" r="7.0065" fill="#F0F0F0"/>
<circle cx="115.802" cy="50.6026" r="7.0065" fill="#F0F0F0"/>
<circle cx="202.994" cy="72.4005" r="7.0065" fill="#F0F0F0"/>
<circle cx="181.196" cy="72.4005" r="7.0065" fill="#F0F0F0"/>
<circle cx="159.398" cy="72.4005" r="7.0065" fill="#F0F0F0"/>
<circle cx="137.6" cy="72.4005" r="7.0065" fill="#F0F0F0"/>
<circle cx="115.802" cy="72.4005" r="7.0065" fill="#F0F0F0"/>
<circle cx="202.994" cy="94.1985" r="7.0065" fill="#F0F0F0"/>
<circle cx="181.196" cy="94.1985" r="7.0065" fill="#F0F0F0"/>
<circle cx="159.398" cy="94.1985" r="7.0065" fill="#F0F0F0"/>
<circle cx="137.6" cy="94.1985" r="7.0065" fill="#F0F0F0"/>
<circle cx="115.802" cy="94.1985" r="7.0065" fill="#F0F0F0"/>
<circle cx="115.802" cy="115.802" r="7.0065" fill="#F0F0F0"/>
<circle cx="137.6" cy="115.802" r="7.0065" fill="#F0F0F0"/>
<circle cx="159.398" cy="115.802" r="7.0065" fill="#F0F0F0"/>
<circle cx="181.196" cy="115.802" r="7.0065" fill="#F0F0F0"/>
<circle cx="202.994" cy="115.802" r="7.0065" fill="#F0F0F0"/>
<circle cx="202.994" cy="137.6" r="7.0065" fill="#F0F0F0"/>
<circle cx="181.196" cy="137.6" r="7.0065" fill="#F0F0F0"/>
<circle cx="159.398" cy="137.6" r="7.0065" fill="#F0F0F0"/>
<circle cx="137.6" cy="137.6" r="7.0065" fill="#F0F0F0"/>
<circle cx="115.802" cy="137.6" r="7.0065" fill="#F0F0F0"/>
<circle cx="202.994" cy="159.398" r="7.0065" fill="#F0F0F0"/>
<circle cx="181.196" cy="159.398" r="7.0065" fill="#F0F0F0"/>
<circle cx="159.398" cy="159.398" r="7.0065" fill="#F0F0F0"/>
<circle cx="137.6" cy="159.398" r="7.0065" fill="#F0F0F0"/>
<circle cx="115.802" cy="159.398" r="7.0065" fill="#F0F0F0"/>
<circle cx="202.994" cy="181.196" r="7.0065" fill="#F0F0F0"/>
<circle cx="181.196" cy="181.196" r="7.0065" fill="#F0F0F0"/>
<circle cx="159.398" cy="181.196" r="7.0065" fill="#F0F0F0"/>
<circle cx="137.6" cy="181.196" r="7.0065" fill="#F0F0F0"/>
<circle cx="115.802" cy="181.196" r="7.0065" fill="#F0F0F0"/>
<circle cx="202.994" cy="202.994" r="7.0065" fill="#F0F0F0"/>
<circle cx="181.196" cy="202.994" r="7.0065" fill="#F0F0F0"/>
<circle cx="159.398" cy="202.994" r="7.0065" fill="#F0F0F0"/>
<circle cx="137.6" cy="202.994" r="7.0065" fill="#F0F0F0"/>
<circle cx="115.802" cy="202.994" r="7.0065" fill="#F0F0F0"/>
<circle cx="7.0065" cy="115.802" r="7.0065" fill="#F0F0F0"/>
<circle cx="28.8046" cy="115.802" r="7.0065" fill="#F0F0F0"/>
<circle cx="50.6022" cy="115.802" r="7.0065" fill="#F0F0F0"/>
<circle cx="72.4005" cy="115.802" r="7.0065" fill="#F0F0F0"/>
<circle cx="94.1982" cy="115.802" r="7.0065" fill="#F0F0F0"/>
<circle cx="94.1982" cy="137.6" r="7.0065" fill="#F0F0F0"/>
<circle cx="72.4005" cy="137.6" r="7.0065" fill="#F0F0F0"/>
<circle cx="50.6022" cy="137.6" r="7.0065" fill="#F0F0F0"/>
<circle cx="28.8046" cy="137.6" r="7.0065" fill="#F0F0F0"/>
<circle cx="7.0065" cy="137.6" r="7.0065" fill="#F0F0F0"/>
<circle cx="94.1982" cy="159.398" r="7.0065" fill="#F0F0F0"/>
<circle cx="72.4005" cy="159.398" r="7.0065" fill="#F0F0F0"/>
<circle cx="50.6022" cy="159.398" r="7.0065" fill="#F0F0F0"/>
<circle cx="28.8046" cy="159.398" r="7.0065" fill="#F0F0F0"/>
<circle cx="7.0065" cy="159.398" r="7.0065" fill="#F0F0F0"/>
<circle cx="94.1982" cy="181.196" r="7.0065" fill="#F0F0F0"/>
<circle cx="72.4005" cy="181.196" r="7.0065" fill="#F0F0F0"/>
<circle cx="50.6022" cy="181.196" r="7.0065" fill="#F0F0F0"/>
<circle cx="28.8046" cy="181.196" r="7.0065" fill="#F0F0F0"/>
<circle cx="7.0065" cy="181.196" r="7.0065" fill="#F0F0F0"/>
<circle cx="94.1982" cy="202.994" r="7.0065" fill="#F0F0F0"/>
<circle cx="72.4005" cy="202.994" r="7.0065" fill="#F0F0F0"/>
<circle cx="50.6022" cy="202.994" r="7.0065" fill="#F0F0F0"/>
<circle cx="28.8046" cy="202.994" r="7.0065" fill="#F0F0F0"/>
<circle cx="7.0065" cy="202.994" r="7.0065" fill="#F0F0F0"/>
<circle cx="224.007" cy="7.00686" r="7.0065" fill="#F0F0F0"/>
<circle cx="245.805" cy="7.0065" r="7.0065" fill="#F0F0F0"/>
<circle cx="267.602" cy="7.0065" r="7.0065" fill="#F0F0F0"/>
<circle cx="289.401" cy="7.0065" r="7.0065" fill="#F0F0F0"/>
<circle cx="311.198" cy="7.0065" r="7.0065" fill="#F0F0F0"/>
<circle cx="311.198" cy="28.8045" r="7.0065" fill="#F0F0F0"/>
<circle cx="289.401" cy="28.8045" r="7.0065" fill="#F0F0F0"/>
<circle cx="267.602" cy="28.8045" r="7.0065" fill="#F0F0F0"/>
<circle cx="245.805" cy="28.8045" r="7.0065" fill="#F0F0F0"/>
<circle cx="224.007" cy="28.8045" r="7.0065" fill="#F0F0F0"/>
<circle cx="311.198" cy="50.6026" r="7.0065" fill="#F0F0F0"/>
<circle cx="289.401" cy="50.6026" r="7.0065" fill="#F0F0F0"/>
<circle cx="267.602" cy="50.6026" r="7.0065" fill="#F0F0F0"/>
<circle cx="245.805" cy="50.6026" r="7.0065" fill="#F0F0F0"/>
<circle cx="224.007" cy="50.6026" r="7.0065" fill="#F0F0F0"/>
<circle cx="311.198" cy="72.4004" r="7.0065" fill="#F0F0F0"/>
<circle cx="289.401" cy="72.4004" r="7.0065" fill="#F0F0F0"/>
<circle cx="267.602" cy="72.4004" r="7.0065" fill="#F0F0F0"/>
<circle cx="245.805" cy="72.4004" r="7.0065" fill="#F0F0F0"/>
<circle cx="224.007" cy="72.4004" r="7.0065" fill="#F0F0F0"/>
<circle cx="311.198" cy="94.1985" r="7.0065" fill="#F0F0F0"/>
<circle cx="289.401" cy="94.1985" r="7.0065" fill="#F0F0F0"/>
<circle cx="267.602" cy="94.1985" r="7.0065" fill="#F0F0F0"/>
<circle cx="245.805" cy="94.1985" r="7.0065" fill="#F0F0F0"/>
<circle cx="224.007" cy="94.1985" r="7.0065" fill="#F0F0F0"/>
<circle cx="224.007" cy="115.802" r="7.0065" fill="#F0F0F0"/>
<circle cx="245.805" cy="115.802" r="7.0065" fill="#F0F0F0"/>
<circle cx="267.602" cy="115.802" r="7.0065" fill="#F0F0F0"/>
<circle cx="289.401" cy="115.802" r="7.0065" fill="#F0F0F0"/>
<circle cx="311.198" cy="115.802" r="7.0065" fill="#F0F0F0"/>
<circle cx="311.198" cy="137.6" r="7.0065" fill="#F0F0F0"/>
<circle cx="289.401" cy="137.6" r="7.0065" fill="#F0F0F0"/>
<circle cx="267.602" cy="137.6" r="7.0065" fill="#F0F0F0"/>
<circle cx="245.805" cy="137.6" r="7.0065" fill="#F0F0F0"/>
<circle cx="224.007" cy="137.6" r="7.0065" fill="#F0F0F0"/>
<circle cx="311.198" cy="159.398" r="7.0065" fill="#F0F0F0"/>
<circle cx="289.401" cy="159.398" r="7.0065" fill="#F0F0F0"/>
<circle cx="267.602" cy="159.398" r="7.0065" fill="#F0F0F0"/>
<circle cx="245.805" cy="159.398" r="7.0065" fill="#F0F0F0"/>
<circle cx="224.007" cy="159.398" r="7.0065" fill="#F0F0F0"/>
<circle cx="311.198" cy="181.196" r="7.0065" fill="#F0F0F0"/>
<circle cx="289.401" cy="181.196" r="7.0065" fill="#F0F0F0"/>
<circle cx="267.602" cy="181.196" r="7.0065" fill="#F0F0F0"/>
<circle cx="245.805" cy="181.196" r="7.0065" fill="#F0F0F0"/>
<circle cx="224.007" cy="181.196" r="7.0065" fill="#F0F0F0"/>
<circle cx="311.198" cy="202.994" r="7.0065" fill="#F0F0F0"/>
<circle cx="289.401" cy="202.994" r="7.0065" fill="#F0F0F0"/>
<circle cx="267.602" cy="202.994" r="7.0065" fill="#F0F0F0"/>
<circle cx="245.805" cy="202.994" r="7.0065" fill="#F0F0F0"/>
<circle cx="224.007" cy="202.994" r="7.0065" fill="#F0F0F0"/>
</svg>
