<svg width="80" height="56" viewBox="0 0 80 56" fill="none" xmlns="http://www.w3.org/2000/svg">
<path d="M49.8014 26.4901C49.8014 28.6093 49.4482 30.5519 48.5652 32.3179C47.8588 34.0839 46.7992 35.6733 45.3864 37.0862C43.9736 38.499 42.3841 39.5586 40.6181 40.265C38.8521 40.9714 36.9095 41.5012 34.7903 41.5012C32.8477 41.5012 31.0817 41.148 29.4923 40.6182C27.7263 39.9118 26.3135 39.0288 24.9007 37.7926C23.4879 39.0288 22.0751 39.9118 20.3091 40.6182C18.5431 41.3246 16.7771 41.5012 15.011 41.5012C12.8918 41.5012 10.9492 41.148 9.18324 40.265C7.41723 39.382 5.82782 38.499 4.41501 37.0862C3.00221 35.6733 1.94261 34.0839 1.23621 32.3179C0.52981 30.5519 0 28.6093 0 26.4901V1.41284H10.0662V26.4901C10.0662 27.1965 10.2428 27.9029 10.4194 28.4327C10.596 28.9625 10.9492 29.4923 11.479 30.0221C12.0088 30.5519 12.5386 30.9051 13.0684 31.0817C13.5982 31.2583 14.3046 31.4349 15.011 31.4349C15.7175 31.4349 16.4239 31.2583 16.9537 31.0817C17.4835 30.9051 18.0133 30.5519 18.5431 30.0221C19.0729 29.4923 19.4261 28.9625 19.6027 28.4327C19.7793 27.9029 19.9559 27.1965 19.9559 26.4901V1.41284H29.8455V26.4901C29.8455 27.1965 30.0221 27.9029 30.1987 28.4327C30.3753 28.9625 30.9051 29.4923 31.2583 30.0221C31.7881 30.5519 32.3179 30.9051 32.8477 31.0817C33.3775 31.2583 34.0839 31.4349 34.7903 31.4349C35.4967 31.4349 36.2031 31.2583 36.7329 31.0817C37.2627 30.9051 37.7925 30.5519 38.3223 30.0221C38.8521 29.4923 39.2053 28.9625 39.3819 28.4327C39.5585 27.9029 39.7351 27.1965 39.7351 26.4901V1.41284H49.6248V26.4901H49.8014Z" fill="black"/>
<path d="M49.978 55.6292H39.9117V1.41281H42.3841L46.446 6.18102C47.329 5.29802 48.3886 4.59163 49.4482 3.70862C50.5078 2.82562 51.5674 2.29581 52.8036 1.76601C54.0398 1.2362 55.0994 0.706408 56.3356 0.529807C57.5718 0.176606 58.808 0 60.0442 0C62.8698 0 65.3422 0.529807 67.8146 1.41281C70.287 2.47241 72.4062 3.88521 74.1722 5.65121C75.9382 7.41722 77.3511 9.71305 78.4107 12.1855C79.4703 14.6579 80.0001 17.4835 80.0001 20.6623C80.0001 23.8411 79.4703 26.8433 78.4107 29.3157C77.3511 31.7881 75.9382 34.0839 74.1722 35.8499C72.4062 37.6159 70.287 39.0287 67.8146 39.9117C65.3422 40.7947 62.8698 41.3245 60.0442 41.3245C59.1612 41.3245 58.2782 41.1479 57.3952 40.9713C56.5122 40.7947 55.6292 40.4415 54.7462 40.2649C53.8632 39.9117 53.1568 39.5585 52.2738 39.2053C51.3908 38.8521 50.6844 38.3223 49.978 37.9691V55.6292V55.6292ZM69.9338 20.6623C69.9338 19.0729 69.7572 17.4835 69.2274 16.2472C68.6976 15.011 67.9912 13.7748 67.1082 12.8918C66.2252 12.0088 65.1656 11.3024 63.9294 10.7726C62.6932 10.2428 61.457 10.0662 60.0442 10.0662C58.6314 10.0662 57.3952 10.2428 56.159 10.7726C54.9228 11.3024 53.8632 12.0088 52.9802 12.8918C52.0972 13.7748 51.3908 15.011 50.861 16.2472C50.3312 17.4835 50.1546 19.0729 50.1546 20.6623C50.1546 22.2517 50.3312 23.6645 50.861 25.0773C51.3908 26.4901 52.0972 27.5497 52.9802 28.4327C53.8632 29.3157 54.9228 30.0221 56.159 30.5519C57.3952 31.0817 58.6314 31.2583 60.0442 31.2583C61.457 31.2583 62.6932 31.0817 63.9294 30.5519C65.1656 30.0221 66.2252 29.3157 67.1082 28.4327C67.9912 27.5497 68.6976 26.3135 69.2274 25.0773C69.7572 23.8411 69.9338 22.2517 69.9338 20.6623Z" fill="black"/>
</svg>
