<svg width="61" height="43" viewBox="0 0 61 43" fill="none" xmlns="http://www.w3.org/2000/svg">
<path d="M37.9735 20.1987C37.9735 21.8146 37.7042 23.2958 37.0309 24.6424C36.4923 25.989 35.6843 27.2009 34.6071 28.2781C33.5298 29.3554 32.3179 30.1634 30.9713 30.702C29.6247 31.2406 28.1435 31.6446 26.5276 31.6446C25.0464 31.6446 23.6998 31.3753 22.4879 30.9713C21.1413 30.4327 20.064 29.7594 18.9868 28.8168C17.9095 29.7594 16.8322 30.4327 15.4857 30.9713C14.1391 31.5099 12.7925 31.6446 11.4459 31.6446C9.83002 31.6446 8.34879 31.3753 7.00221 30.702C5.65564 30.0287 4.44371 29.3554 3.36645 28.2781C2.28918 27.2009 1.48124 25.989 0.942611 24.6424C0.40398 23.2958 0 21.8146 0 20.1987V1.07727H7.6755V20.1987C7.6755 20.7373 7.81016 21.2759 7.94481 21.6799C8.07947 22.0839 8.34879 22.4879 8.75276 22.8918C9.15673 23.2958 9.56071 23.5651 9.96468 23.6998C10.3687 23.8344 10.9073 23.9691 11.4459 23.9691C11.9845 23.9691 12.5232 23.8344 12.9272 23.6998C13.3311 23.5651 13.7351 23.2958 14.1391 22.8918C14.543 22.4879 14.8124 22.0839 14.947 21.6799C15.0817 21.2759 15.2163 20.7373 15.2163 20.1987V1.07727H22.7572V20.1987C22.7572 20.7373 22.8918 21.2759 23.0265 21.6799C23.1612 22.0839 23.5651 22.4879 23.8344 22.8918C24.2384 23.2958 24.6424 23.5651 25.0464 23.6998C25.4503 23.8344 25.989 23.9691 26.5276 23.9691C27.0662 23.9691 27.6049 23.8344 28.0088 23.6998C28.4128 23.5651 28.8168 23.2958 29.2208 22.8918C29.6247 22.4879 29.894 22.0839 30.0287 21.6799C30.1634 21.2759 30.298 20.7373 30.298 20.1987V1.07727H37.8389V20.1987H37.9735Z" fill="black"/>
<path d="M38.1081 42.4172H30.4326V1.07727H32.3178L35.415 4.71302C36.0882 4.03974 36.8962 3.50111 37.7041 2.82782C38.5121 2.15453 39.32 1.75055 40.2626 1.34658C41.2052 0.942605 42.0132 0.538635 42.9558 0.403978C43.8984 0.134662 44.841 0 45.7836 0C47.9381 0 49.8233 0.403978 51.7085 1.07727C53.5938 1.88521 55.2097 2.96247 56.5562 4.30905C57.9028 5.65563 58.9801 7.40619 59.788 9.2914C60.596 11.1766 60.9999 13.3311 60.9999 15.755C60.9999 18.1788 60.596 20.468 59.788 22.3532C58.9801 24.2384 57.9028 25.989 56.5562 27.3355C55.2097 28.6821 53.5938 29.7594 51.7085 30.4327C49.8233 31.106 47.9381 31.5099 45.7836 31.5099C45.1103 31.5099 44.437 31.3753 43.7637 31.2406C43.0904 31.106 42.4172 30.8366 41.7439 30.702C41.0706 30.4327 40.532 30.1634 39.8587 29.894C39.1854 29.6247 38.6467 29.2208 38.1081 28.9514V42.4172V42.4172ZM53.3244 15.755C53.3244 14.543 53.1898 13.3311 52.7858 12.3885C52.3818 11.4459 51.8432 10.5033 51.1699 9.83003C50.4966 9.15674 49.6887 8.61811 48.7461 8.21414C47.8035 7.81016 46.8609 7.67549 45.7836 7.67549C44.7063 7.67549 43.7637 7.81016 42.8211 8.21414C41.8785 8.61811 41.0706 9.15674 40.3973 9.83003C39.724 10.5033 39.1854 11.4459 38.7814 12.3885C38.3774 13.3311 38.2428 14.543 38.2428 15.755C38.2428 16.9669 38.3774 18.0441 38.7814 19.1214C39.1854 20.1987 39.724 21.0066 40.3973 21.6799C41.0706 22.3532 41.8785 22.8918 42.8211 23.2958C43.7637 23.6998 44.7063 23.8344 45.7836 23.8344C46.8609 23.8344 47.8035 23.6998 48.7461 23.2958C49.6887 22.8918 50.4966 22.3532 51.1699 21.6799C51.8432 21.0066 52.3818 20.064 52.7858 19.1214C53.1898 18.1788 53.3244 16.9669 53.3244 15.755Z" fill="black"/>
</svg>
