<svg width="379" height="404" viewBox="0 0 379 404" fill="none" xmlns="http://www.w3.org/2000/svg">
<path fill-rule="evenodd" clip-rule="evenodd" d="M135.293 296.072C122.483 275.208 101.932 260.344 94.1095 237.33C85.248 211.257 81.5989 183.828 88.3247 157.88C96.1611 127.649 105.803 91.322 134.84 80.1971C163.914 69.0581 196.508 90.5833 225.179 105.447C246.701 116.605 257.947 139.316 277.308 154.057C301.729 172.65 348.033 172.763 352.753 202.58C357.516 232.668 312.746 243.235 295.187 266.996C282.009 284.829 277.973 307.102 263.269 323.673C240.546 349.282 221.734 396.266 187.11 388.798C152.023 381.231 154.304 327.034 135.293 296.072Z" fill="#FFA800"/>
<path fill-rule="evenodd" clip-rule="evenodd" d="M119.372 0.911421C150.545 -6.72179 172.442 35.3524 191.119 61.3891C205.386 81.2792 202.929 107.135 211.896 129.897C221.77 154.962 250.461 174.372 246.095 200.948C241.701 227.695 214.283 244.281 190.851 258.006C169.188 270.695 144.409 277.235 119.372 275.174C95.7256 273.227 72.092 264.277 55.9817 246.903C41.2736 231.041 44.2724 206.932 37.1671 186.522C29.8427 165.482 6.64791 146.767 13.7741 125.66C20.9093 104.526 54.9234 108.247 69.3469 91.2075C92.1469 64.2726 85.0484 9.31633 119.372 0.911421Z" fill="#FFA800"/>
<g clip-path="url(#clip0)">
<path d="M162.36 78.7281H154.626C111.061 78.7281 75.7456 114.217 75.7456 157.994V188.03C75.7456 231.808 111.061 267.297 154.626 267.297H162.36C205.924 267.297 241.24 231.808 241.24 188.03V157.994C241.24 114.217 205.924 78.7281 162.36 78.7281Z" fill="#4F3320"/>
<path d="M86.4519 143.917H230.533C233.373 143.917 236.096 145.05 238.104 147.068C240.112 149.085 241.24 151.822 241.24 154.675V246.222C241.254 256.909 239.172 267.494 235.112 277.373C231.052 287.251 225.094 296.228 217.579 303.79C210.063 311.352 201.138 317.352 191.314 321.445C181.489 325.538 170.958 327.645 160.323 327.645H156.662C135.202 327.645 114.62 319.078 99.4456 303.829C84.2707 288.58 75.7456 267.898 75.7456 246.332V154.675C75.7456 151.822 76.8736 149.085 78.8814 147.068C80.8892 145.05 83.6124 143.917 86.4519 143.917V143.917Z" fill="#372112"/>
<path d="M178.46 262.318H137.644V309.64H178.46V262.318Z" fill="#EA6769"/>
<path d="M158.231 291.608H157.873C150.354 291.57 143.127 288.675 137.644 283.504V309.64H178.46V283.504C172.974 288.67 165.749 291.564 158.231 291.608V291.608Z" fill="#EA9482"/>
<path d="M192.166 294.705H124.543V329.415H192.166V294.705Z" fill="#171717"/>
<path d="M130.13 294.705H130.103C129.358 294.705 128.754 295.312 128.754 296.06V328.06C128.754 328.808 129.358 329.415 130.103 329.415H130.13C130.875 329.415 131.479 328.808 131.479 328.06V296.06C131.479 295.312 130.875 294.705 130.13 294.705Z" fill="#1E1D1D"/>
<path d="M136.818 294.705H136.791C136.046 294.705 135.442 295.312 135.442 296.06V328.06C135.442 328.808 136.046 329.415 136.791 329.415H136.818C137.563 329.415 138.167 328.808 138.167 328.06V296.06C138.167 295.312 137.563 294.705 136.818 294.705Z" fill="#1E1D1D"/>
<path d="M143.644 294.705H143.616C142.871 294.705 142.268 295.312 142.268 296.06V328.06C142.268 328.808 142.871 329.415 143.616 329.415H143.644C144.389 329.415 144.992 328.808 144.992 328.06V296.06C144.992 295.312 144.389 294.705 143.644 294.705Z" fill="#1E1D1D"/>
<path d="M150.607 294.705H150.58C149.835 294.705 149.231 295.312 149.231 296.06V328.06C149.231 328.808 149.835 329.415 150.58 329.415H150.607C151.352 329.415 151.956 328.808 151.956 328.06V296.06C151.956 295.312 151.352 294.705 150.607 294.705Z" fill="#1E1D1D"/>
<path d="M158.066 294.705H158.038C157.293 294.705 156.689 295.312 156.689 296.06V328.06C156.689 328.808 157.293 329.415 158.038 329.415H158.066C158.81 329.415 159.414 328.808 159.414 328.06V296.06C159.414 295.312 158.81 294.705 158.066 294.705Z" fill="#1E1D1D"/>
<path d="M165.442 294.705H165.414C164.669 294.705 164.065 295.312 164.065 296.06V328.06C164.065 328.808 164.669 329.415 165.414 329.415H165.442C166.186 329.415 166.79 328.808 166.79 328.06V296.06C166.79 295.312 166.186 294.705 165.442 294.705Z" fill="#1E1D1D"/>
<path d="M172.708 294.705H172.68C171.935 294.705 171.332 295.312 171.332 296.06V328.06C171.332 328.808 171.935 329.415 172.68 329.415H172.708C173.452 329.415 174.056 328.808 174.056 328.06V296.06C174.056 295.312 173.452 294.705 172.708 294.705Z" fill="#1E1D1D"/>
<path d="M180.249 294.705H180.222C179.477 294.705 178.873 295.312 178.873 296.06V328.06C178.873 328.808 179.477 329.415 180.222 329.415H180.249C180.994 329.415 181.598 328.808 181.598 328.06V296.06C181.598 295.312 180.994 294.705 180.249 294.705Z" fill="#1E1D1D"/>
<path d="M187.46 294.705H187.433C186.688 294.705 186.084 295.312 186.084 296.06V328.06C186.084 328.808 186.688 329.415 187.433 329.415H187.46C188.205 329.415 188.809 328.808 188.809 328.06V296.06C188.809 295.312 188.205 294.705 187.46 294.705Z" fill="#1E1D1D"/>
<path d="M81.9933 146.876H86.6721C87.9641 146.876 89.2032 147.392 90.1168 148.31C91.0304 149.228 91.5436 150.473 91.5436 151.771V179.954C91.5436 181.253 91.0304 182.498 90.1168 183.416C89.2032 184.334 87.9641 184.85 86.6721 184.85H80.6171C79.3251 184.85 78.086 184.334 77.1724 183.416C76.2589 182.498 75.7456 181.253 75.7456 179.954V153.154C75.7456 151.489 76.4038 149.892 77.5755 148.715C78.7472 147.538 80.3363 146.876 81.9933 146.876V146.876Z" fill="#4F3320"/>
<path d="M233.257 145.106C235.374 145.106 237.404 145.951 238.901 147.455C240.398 148.959 241.239 151 241.239 153.127V178.184C241.235 178.834 241.103 179.477 240.85 180.075C240.597 180.673 240.227 181.215 239.764 181.668C239.3 182.121 238.751 182.477 238.149 182.714C237.547 182.952 236.904 183.067 236.257 183.052H230.312C229.673 183.052 229.039 182.926 228.448 182.68C227.857 182.433 227.32 182.073 226.868 181.618C226.415 181.164 226.057 180.624 225.812 180.03C225.567 179.436 225.441 178.8 225.441 178.157V152.906C225.445 151.878 225.65 150.861 226.044 149.912C226.439 148.964 227.016 148.103 227.742 147.379C228.468 146.655 229.328 146.081 230.275 145.691C231.221 145.301 232.235 145.102 233.257 145.106V145.106Z" fill="#4F3320"/>
<path d="M86.0115 177.189C82.5157 177.183 79.0967 178.22 76.1874 180.168C73.278 182.115 71.009 184.887 69.6674 188.131C68.3258 191.375 67.972 194.946 68.6506 198.392C69.3293 201.838 71.01 205.004 73.48 207.49C75.95 209.976 79.0984 211.67 82.5267 212.358C85.955 213.045 89.5092 212.695 92.7395 211.352C95.9698 210.009 98.731 207.733 100.674 204.812C102.617 201.892 103.654 198.458 103.654 194.945C103.654 190.24 101.796 185.728 98.488 182.399C95.1803 179.07 90.693 177.196 86.0115 177.189ZM86.0115 210.544C85.2973 210.544 84.5991 210.33 84.0056 209.931C83.4121 209.532 82.95 208.964 82.678 208.301C82.4059 207.637 82.3361 206.907 82.4775 206.203C82.6189 205.5 82.965 204.854 83.472 204.349C83.979 203.843 84.624 203.5 85.3252 203.364C86.0264 203.227 86.7522 203.303 87.4105 203.581C88.0688 203.86 88.63 204.328 89.0228 204.928C89.4157 205.527 89.6225 206.23 89.617 206.948C89.6244 207.427 89.5363 207.903 89.3581 208.348C89.1799 208.792 88.915 209.196 88.5791 209.536C88.2432 209.876 87.843 210.146 87.4021 210.328C86.9612 210.511 86.4884 210.603 86.0115 210.599V210.544Z" fill="#ED9380"/>
<path d="M86.0114 202.523C90.1763 202.523 93.5526 199.13 93.5526 194.945C93.5526 190.759 90.1763 187.367 86.0114 187.367C81.8465 187.367 78.4702 190.759 78.4702 194.945C78.4702 199.13 81.8465 202.523 86.0114 202.523Z" fill="#E85658"/>
<path d="M89.6162 207.28C89.6162 207.997 89.4048 208.697 89.0086 209.293C88.6124 209.889 88.0493 210.353 87.3905 210.627C86.7317 210.902 86.0068 210.973 85.3074 210.833C84.608 210.694 83.9655 210.349 83.4613 209.842C82.9571 209.335 82.6137 208.69 82.4746 207.987C82.3354 207.284 82.4068 206.555 82.6797 205.893C82.9526 205.231 83.4148 204.666 84.0077 204.267C84.6006 203.869 85.2977 203.657 86.0107 203.657C86.4852 203.653 86.9557 203.744 87.3948 203.925C87.8339 204.106 88.2329 204.373 88.5684 204.71C88.9039 205.047 89.1693 205.448 89.3492 205.889C89.5291 206.33 89.6199 206.803 89.6162 207.28V207.28Z" stroke="#231F20" stroke-width="0.5" stroke-miterlimit="10"/>
<path d="M213.304 194.945C213.304 198.457 214.34 201.89 216.282 204.81C218.223 207.73 220.983 210.005 224.211 211.349C227.44 212.693 230.993 213.045 234.42 212.36C237.848 211.675 240.996 209.983 243.468 207.5C245.939 205.017 247.622 201.853 248.303 198.409C248.985 194.965 248.635 191.394 247.298 188.15C245.96 184.905 243.696 182.132 240.79 180.181C237.884 178.23 234.468 177.189 230.973 177.189C228.652 177.185 226.353 177.642 224.207 178.533C222.062 179.424 220.112 180.732 218.471 182.381C216.829 184.031 215.528 185.99 214.641 188.146C213.755 190.301 213.3 192.612 213.304 194.945V194.945ZM227.505 206.948C227.5 206.23 227.707 205.527 228.1 204.928C228.493 204.328 229.054 203.86 229.712 203.581C230.37 203.303 231.096 203.227 231.797 203.364C232.499 203.5 233.143 203.843 233.65 204.349C234.157 204.854 234.504 205.5 234.645 206.203C234.786 206.907 234.717 207.637 234.445 208.301C234.172 208.964 233.71 209.532 233.117 209.931C232.523 210.33 231.825 210.544 231.111 210.544C230.639 210.547 230.171 210.457 229.733 210.278C229.296 210.099 228.898 209.835 228.563 209.5C228.228 209.166 227.962 208.769 227.78 208.331C227.599 207.892 227.505 207.423 227.505 206.948V206.948Z" fill="#ED9380"/>
<path d="M230.946 202.523C235.111 202.523 238.487 199.13 238.487 194.945C238.487 190.759 235.111 187.367 230.946 187.367C226.781 187.367 223.405 190.759 223.405 194.945C223.405 199.13 226.781 202.523 230.946 202.523Z" fill="#E85658"/>
<path d="M227.34 207.28C227.34 207.997 227.551 208.697 227.948 209.293C228.344 209.889 228.907 210.353 229.566 210.627C230.224 210.902 230.949 210.973 231.649 210.833C232.348 210.694 232.991 210.349 233.495 209.842C233.999 209.335 234.343 208.69 234.482 207.987C234.621 207.284 234.549 206.555 234.276 205.893C234.004 205.231 233.541 204.666 232.949 204.267C232.356 203.869 231.659 203.657 230.945 203.657C230.471 203.653 230 203.744 229.561 203.925C229.122 204.106 228.723 204.373 228.388 204.71C228.052 205.047 227.787 205.448 227.607 205.889C227.427 206.33 227.336 206.803 227.34 207.28V207.28Z" stroke="#231F20" stroke-width="0.5" stroke-miterlimit="10"/>
<path d="M239.395 205.261C240.398 205.261 241.212 204.444 241.212 203.436C241.212 202.428 240.398 201.61 239.395 201.61C238.392 201.61 237.579 202.428 237.579 203.436C237.579 204.444 238.392 205.261 239.395 205.261Z" fill="#CECAC8"/>
<path d="M225.441 160.373C225.441 123.209 195.461 93.0823 158.478 93.0823C121.496 93.0823 91.5156 123.209 91.5156 160.373V209.327C91.5156 246.49 121.496 276.617 158.478 276.617C195.461 276.617 225.441 246.49 225.441 209.327V160.373Z" fill="#F4C09B"/>
<path d="M158.341 241.769C140.582 241.769 123.549 234.679 110.991 222.06C98.4334 209.44 91.3784 192.325 91.3784 174.478V209.244C91.3857 227.088 98.443 244.199 110.999 256.817C123.556 269.435 140.584 276.527 158.341 276.534V276.534C176.101 276.534 193.133 269.445 205.691 256.825C218.249 244.206 225.304 227.09 225.304 209.244V174.478C225.304 192.325 218.249 209.44 205.691 222.06C193.133 234.679 176.101 241.769 158.341 241.769V241.769Z" fill="#F5B596"/>
<path d="M158.038 186.592C160.593 186.592 163.043 187.612 164.85 189.427C166.656 191.243 167.671 193.705 167.671 196.272V215.909C167.671 217.574 167.013 219.171 165.841 220.348C164.67 221.526 163.08 222.187 161.424 222.187H154.653C152.996 222.187 151.407 221.526 150.235 220.348C149.064 219.171 148.405 217.574 148.405 215.909V196.272C148.405 193.705 149.42 191.243 151.227 189.427C153.033 187.612 155.483 186.592 158.038 186.592Z" fill="#DE6057"/>
<path d="M161.451 216.435H154.68C153.023 216.435 151.434 215.773 150.263 214.596C149.091 213.418 148.433 211.821 148.433 210.156V215.909C148.433 217.574 149.091 219.171 150.263 220.348C151.434 221.526 153.023 222.187 154.68 222.187H161.451C163.108 222.187 164.697 221.526 165.869 220.348C167.04 219.171 167.699 217.574 167.699 215.909V210.156C167.699 211.821 167.04 213.418 165.869 214.596C164.697 215.773 163.108 216.435 161.451 216.435Z" fill="#D14E4A"/>
<path d="M162.304 194.613H162.276C160.984 194.613 159.937 195.665 159.937 196.964V207.031C159.937 208.329 160.984 209.382 162.276 209.382H162.304C163.596 209.382 164.643 208.329 164.643 207.031V196.964C164.643 195.665 163.596 194.613 162.304 194.613Z" fill="#D8726F"/>
<path d="M112.35 218.509C118.43 218.509 123.359 214.41 123.359 209.354C123.359 204.298 118.43 200.2 112.35 200.2C106.27 200.2 101.341 204.298 101.341 209.354C101.341 214.41 106.27 218.509 112.35 218.509Z" fill="#EA9B9F"/>
<path d="M204.524 218.509C210.604 218.509 215.533 214.41 215.533 209.354C215.533 204.298 210.604 200.2 204.524 200.2C198.444 200.2 193.515 204.298 193.515 209.354C193.515 214.41 198.444 218.509 204.524 218.509Z" fill="#EA9B9F"/>
<path d="M142.855 102.334L81.0496 138.192C77.3242 140.353 76.0478 145.14 78.1987 148.884L81.3775 154.417C83.5284 158.16 88.292 159.443 92.0174 157.282L153.822 121.424C157.548 119.262 158.824 114.475 156.673 110.732L153.495 105.199C151.344 101.455 146.58 100.173 142.855 102.334Z" fill="#4F3320"/>
<path d="M161.604 121.582L224.386 158.006C228.111 160.168 232.875 158.885 235.026 155.141L238.329 149.393C240.479 145.649 239.203 140.862 235.478 138.701L172.695 102.276C168.97 100.115 164.206 101.397 162.055 105.141L158.753 110.89C156.602 114.633 157.878 119.42 161.604 121.582Z" fill="#4F3320"/>
<path d="M159.139 115.291L162.414 109.566C163.463 107.782 165.174 106.489 167.17 105.971C169.167 105.452 171.287 105.751 173.065 106.801L221.175 134.624C216.584 121.463 208.037 110.061 196.716 101.995C185.396 93.9279 171.861 89.595 157.983 89.595C144.105 89.595 130.57 93.9279 119.249 101.995C107.929 110.061 99.3817 121.463 94.7905 134.624L143.093 106.579C144.875 105.528 146.999 105.229 149 105.747C151.002 106.265 152.717 107.559 153.772 109.345L157.047 115.042" fill="#4F3320"/>
<path d="M131.699 164.162H117.36C114.593 164.162 112.351 166.416 112.351 169.196C112.351 171.976 114.593 174.229 117.36 174.229H131.699C134.466 174.229 136.708 171.976 136.708 169.196C136.708 166.416 134.466 164.162 131.699 164.162Z" fill="#4F3320"/>
<path d="M131.699 171.325H117.415C116.342 171.321 115.298 170.969 114.44 170.321C113.582 169.674 112.956 168.765 112.653 167.73C112.407 168.48 112.343 169.279 112.467 170.059C112.591 170.839 112.899 171.578 113.365 172.214C113.831 172.851 114.442 173.365 115.146 173.716C115.851 174.067 116.629 174.243 117.415 174.229H131.754C132.536 174.229 133.308 174.044 134.006 173.69C134.705 173.336 135.311 172.823 135.777 172.191C136.242 171.559 136.554 170.827 136.687 170.052C136.82 169.277 136.771 168.482 136.543 167.73C136.229 168.774 135.587 169.687 134.715 170.335C133.842 170.983 132.784 171.33 131.699 171.325Z" fill="#372112"/>
<path d="M129.304 166.015H123.607C123.045 166.015 122.589 166.473 122.589 167.038V167.481C122.589 168.046 123.045 168.504 123.607 168.504H129.304C129.867 168.504 130.323 168.046 130.323 167.481V167.038C130.323 166.473 129.867 166.015 129.304 166.015Z" fill="#5C493D"/>
<path d="M131.699 174.146H117.415C116.444 174.143 115.496 173.856 114.685 173.321C113.874 172.785 113.235 172.025 112.846 171.132C112.499 171.897 112.35 172.738 112.412 173.576C112.473 174.415 112.745 175.224 113.2 175.93C113.655 176.635 114.28 177.214 115.016 177.613C115.753 178.012 116.578 178.218 117.415 178.212H131.754C132.591 178.218 133.415 178.012 134.152 177.613C134.889 177.214 135.513 176.635 135.969 175.93C136.424 175.224 136.695 174.415 136.757 173.576C136.819 172.738 136.669 171.897 136.323 171.132C135.93 172.034 135.282 172.8 134.46 173.336C133.639 173.872 132.678 174.153 131.699 174.146V174.146Z" fill="#EE947E"/>
<path d="M199.625 163.968H185.285C182.519 163.968 180.276 166.222 180.276 169.002C180.276 171.782 182.519 174.036 185.285 174.036H199.625C202.391 174.036 204.634 171.782 204.634 169.002C204.634 166.222 202.391 163.968 199.625 163.968Z" fill="#4F3320"/>
<path d="M199.625 171.132H185.285C184.21 171.125 183.164 170.772 182.303 170.125C181.441 169.478 180.808 168.571 180.496 167.536C180.269 168.288 180.219 169.083 180.352 169.858C180.485 170.633 180.797 171.366 181.263 171.997C181.728 172.629 182.335 173.143 183.033 173.497C183.732 173.851 184.503 174.035 185.285 174.036H199.625C200.411 174.049 201.188 173.873 201.893 173.522C202.598 173.172 203.208 172.657 203.674 172.021C204.141 171.384 204.448 170.645 204.572 169.865C204.696 169.085 204.632 168.286 204.386 167.536C204.084 168.571 203.457 169.48 202.599 170.128C201.741 170.776 200.698 171.128 199.625 171.132V171.132Z" fill="#372112"/>
<path d="M197.231 165.821H191.533C190.971 165.821 190.515 166.28 190.515 166.845V167.287C190.515 167.852 190.971 168.311 191.533 168.311H197.231C197.793 168.311 198.249 167.852 198.249 167.287V166.845C198.249 166.28 197.793 165.821 197.231 165.821Z" fill="#5C493D"/>
<path d="M199.625 173.953H185.286C184.315 173.949 183.367 173.662 182.556 173.127C181.745 172.591 181.106 171.831 180.717 170.938C180.37 171.703 180.221 172.544 180.283 173.383C180.345 174.221 180.616 175.03 181.071 175.736C181.526 176.442 182.151 177.02 182.888 177.419C183.624 177.818 184.449 178.024 185.286 178.018H199.625C200.462 178.024 201.286 177.818 202.023 177.419C202.76 177.02 203.384 176.442 203.84 175.736C204.295 175.03 204.566 174.221 204.628 173.383C204.69 172.544 204.54 171.703 204.194 170.938C203.805 171.831 203.166 172.591 202.355 173.127C201.544 173.662 200.595 173.949 199.625 173.953V173.953Z" fill="#EE947E"/>
<path d="M78.6679 202.594L78.2999 202.35C77.7664 201.998 77.0497 202.147 76.699 202.683L73.7055 207.259C73.3548 207.795 73.503 208.515 74.0365 208.868L74.4044 209.111C74.9379 209.463 75.6547 209.314 76.0054 208.778L78.9988 204.202C79.3495 203.666 79.2014 202.946 78.6679 202.594Z" fill="#84807E"/>
<path d="M124.543 176.359H124.515C120.639 176.359 117.497 179.517 117.497 183.412V189.773C117.497 193.668 120.639 196.826 124.515 196.826H124.543C128.419 196.826 131.561 193.668 131.561 189.773V183.412C131.561 179.517 128.419 176.359 124.543 176.359Z" fill="black"/>
<path d="M192.469 176.359H192.442C188.566 176.359 185.423 179.517 185.423 183.412V189.773C185.423 193.668 188.566 196.826 192.442 196.826H192.469C196.345 196.826 199.487 193.668 199.487 189.773V183.412C199.487 179.517 196.345 176.359 192.469 176.359Z" fill="black"/>
<path d="M145.501 114.76C147.16 113.797 147.728 111.666 146.771 109.999C145.813 108.332 143.692 107.761 142.033 108.724L92.003 137.75C90.3443 138.712 89.776 140.844 90.7336 142.51C91.6913 144.177 93.8122 144.748 95.4708 143.786L145.501 114.76Z" fill="#5C493D"/>
<path d="M128.621 103.366C130.28 102.404 130.848 100.273 129.891 98.6057C128.933 96.939 126.812 96.3679 125.153 97.3302L110.9 105.6C109.241 106.562 108.673 108.693 109.631 110.36C110.588 112.027 112.709 112.598 114.368 111.636L128.621 103.366Z" fill="#5C493D"/>
<path d="M222.244 145.221C223.903 146.184 226.024 145.612 226.981 143.946C227.939 142.279 227.371 140.148 225.712 139.185L173.036 108.624C171.377 107.662 169.256 108.233 168.299 109.899C167.341 111.566 167.909 113.697 169.568 114.66L222.244 145.221Z" fill="#5C493D"/>
<path d="M217.179 123.241C218.838 124.203 220.959 123.632 221.916 121.966C222.874 120.299 222.306 118.168 220.647 117.205L206.394 108.936C204.735 107.973 202.614 108.544 201.656 110.211C200.699 111.878 201.267 114.009 202.926 114.972L217.179 123.241Z" fill="#5C493D"/>
<path d="M128.424 231.397C130.35 247.245 142.791 259.47 157.901 259.47C173.011 259.47 185.423 247.245 187.35 231.397H128.424Z" fill="#E96869"/>
<path d="M178.9 234.384V237.15C178.9 239.916 171.634 241.935 162.717 241.935H153.194C144.222 241.935 136.956 239.777 136.956 237.15V234.384C136.956 233.637 137.534 232.946 138.552 232.31C141.134 231.015 143.934 230.217 146.809 229.959H147.029C147.772 229.959 148.515 229.959 149.313 229.959C152.016 229.917 154.711 230.252 157.322 230.955H157.487H157.68C160.263 230.253 162.931 229.918 165.607 229.959C167.079 229.944 168.551 230.036 170.01 230.236H170.588C171.751 230.417 172.9 230.676 174.029 231.01C174.208 231.049 174.383 231.104 174.552 231.176C177.304 232.006 178.9 233.167 178.9 234.384Z" fill="#E96869"/>
<path d="M131.892 233.527C132.638 239.899 135.687 245.774 140.458 250.037C145.229 254.3 151.392 256.655 157.777 256.655C164.161 256.655 170.324 254.3 175.095 250.037C179.867 245.774 182.915 239.899 183.662 233.527H131.892Z" fill="#831435" stroke="#BE3B39" stroke-width="0.3" stroke-miterlimit="10"/>
<path d="M170.451 236.708H145.075C142.43 236.708 140.286 238.862 140.286 241.52C140.286 244.178 142.43 246.332 145.075 246.332H170.451C173.096 246.332 175.24 244.178 175.24 241.52C175.24 238.862 173.096 236.708 170.451 236.708Z" fill="#48101B"/>
<path d="M181.102 233.638V236.403C181.109 237.457 180.704 238.472 179.972 239.228C179.241 239.984 178.243 240.42 177.194 240.441H138.139C137.095 240.412 136.104 239.973 135.378 239.218C134.653 238.463 134.251 237.453 134.258 236.403V233.638H181.102Z" fill="#CFDCE6"/>
<path d="M177.194 236.68H138.14C137.269 236.661 136.429 236.351 135.751 235.801C135.074 235.25 134.597 234.489 134.397 233.638V233.638V236.403C134.389 237.453 134.791 238.463 135.517 239.218C136.242 239.973 137.233 240.412 138.277 240.441H177.332C178.381 240.42 179.379 239.984 180.11 239.228C180.842 238.472 181.248 237.457 181.24 236.403V233.638C181.028 234.541 180.507 235.341 179.767 235.897C179.028 236.454 178.117 236.731 177.194 236.68Z" fill="white"/>
<path d="M179.258 244.507C176.911 248.134 173.702 251.115 169.92 253.182C166.138 255.249 161.903 256.336 157.598 256.344V251.421C157.732 249.467 158.628 247.644 160.092 246.35C161.555 245.055 163.468 244.393 165.414 244.507H179.258Z" fill="#EB2862"/>
<path d="M172.295 245.945H163.074C162.512 245.945 162.056 246.397 162.056 246.955C162.056 247.512 162.512 247.964 163.074 247.964H172.295C172.857 247.964 173.313 247.512 173.313 246.955C173.313 246.397 172.857 245.945 172.295 245.945Z" fill="#F0527F"/>
<path d="M112.35 215.052C109.987 215.201 107.642 214.553 105.687 213.21C103.732 211.867 102.28 209.906 101.561 207.639C101.418 208.2 101.345 208.776 101.341 209.354C101.341 214.415 106.267 218.509 112.35 218.509C118.432 218.509 123.359 214.415 123.359 209.354C123.355 208.776 123.281 208.2 123.139 207.639C122.42 209.906 120.967 211.867 119.013 213.21C117.058 214.553 114.713 215.201 112.35 215.052Z" fill="#D3848B"/>
<path d="M204.496 215.052C202.133 215.201 199.788 214.553 197.833 213.21C195.879 211.867 194.427 209.906 193.707 207.639C193.565 208.2 193.491 208.776 193.487 209.354C193.487 214.415 198.441 218.509 204.496 218.509C210.551 218.509 215.505 214.415 215.505 209.354C215.511 208.777 215.446 208.201 215.313 207.639C214.588 209.909 213.131 211.87 211.172 213.213C209.212 214.555 206.863 215.202 204.496 215.052V215.052Z" fill="#D3848B"/>
</g>
<g clip-path="url(#clip1)">
<path d="M153.444 376.174C152.96 377.122 151.604 377.119 151.125 376.168L140.297 354.7L129.265 332.83C128.829 331.965 129.458 330.945 130.426 330.945H152.279H174.273C175.241 330.945 175.869 331.965 175.433 332.83L164.402 354.7L153.444 376.174Z" fill="#58097D"/>
<path d="M185.399 354.864C185.018 356.089 183.282 356.082 182.912 354.853L179.767 344.395L175.779 331.547C175.52 330.71 176.145 329.862 177.021 329.862H184.137H191.27C192.141 329.862 192.766 330.702 192.515 331.536L188.648 344.395L185.399 354.864Z" fill="#58097D"/>
<path d="M175.969 342.605C175.489 343.538 174.159 343.548 173.665 342.622L170.887 337.408L167.935 331.764C167.482 330.899 168.11 329.862 169.087 329.862H174.834H180.44C181.417 329.862 182.044 330.899 181.592 331.764L178.64 337.408L175.969 342.605Z" fill="#58097D"/>
<path d="M131.798 345.193C131.365 346.272 129.842 346.284 129.392 345.212L127.013 339.54L124.266 332.582C123.929 331.729 124.558 330.805 125.475 330.805H130.618H135.729C136.655 330.805 137.284 331.745 136.931 332.601L134.067 339.54L131.798 345.193Z" fill="#58097D"/>
<path d="M153.151 373.418C152.781 374.155 151.729 374.152 151.362 373.414L141.235 353.006L130.804 332.254C130.47 331.589 130.953 330.805 131.698 330.805H152.252H172.948C173.692 330.805 174.176 331.589 173.842 332.254L163.411 353.006L153.151 373.418Z" fill="#9312D0"/>
<path d="M185.11 352.161C184.817 353.104 183.48 353.098 183.197 352.152L180.331 342.578L176.787 331.158C176.587 330.515 177.068 329.862 177.742 329.862H184.137H190.548C191.217 329.862 191.698 330.507 191.506 331.148L188.085 342.578L185.11 352.161Z" fill="#9312D0"/>
<path d="M175.705 341.307C175.336 342.022 174.315 342.031 173.934 341.321L171.309 336.429L168.677 331.32C168.334 330.654 168.818 329.862 169.566 329.862H174.834H179.96C180.709 329.862 181.192 330.654 180.849 331.32L178.217 336.429L175.705 341.307Z" fill="#9312D0"/>
<path d="M131.632 343.022C131.333 343.945 130.027 343.945 129.729 343.022L128.208 338.315L126.167 332.118C125.954 331.471 126.436 330.805 127.117 330.805H130.68H134.141C134.816 330.805 135.297 331.459 135.096 332.103L133.153 338.315L131.632 343.022Z" fill="#9312D0"/>
<path d="M152.607 354.842C152.457 355.132 152.041 355.13 151.894 354.839L146.045 343.242L140.131 331.383C139.998 331.117 140.192 330.805 140.489 330.805H152.247H164.147C164.444 330.805 164.638 331.117 164.505 331.383L158.591 343.242L152.607 354.842Z" fill="#FF7A00"/>
<path d="M185.208 339.819C185.093 340.191 184.57 340.197 184.446 339.829L183.15 335.975L181.754 331.32C181.677 331.063 181.869 330.805 182.137 330.805H184.842H187.406C187.674 330.805 187.866 331.063 187.789 331.32L186.392 335.975L185.208 339.819Z" fill="#FF7A00"/>
<path d="M174.618 335.819C174.476 336.115 174.057 336.123 173.904 335.833L172.724 333.6L171.607 331.385C171.472 331.119 171.666 330.805 171.964 330.805H174.274H176.555C176.86 330.805 177.053 331.132 176.905 331.399L175.684 333.6L174.618 335.819Z" fill="#FF7A00"/>
<path d="M130.922 337.301C130.798 337.659 130.291 337.659 130.167 337.301L129.225 334.595L128.09 331.336C127.999 331.076 128.192 330.805 128.468 330.805H130.545H132.747C133.028 330.805 133.222 331.087 133.12 331.349L131.864 334.595L130.922 337.301Z" fill="#FF7A00"/>
</g>
<defs>
<clipPath id="clip0">
<rect x="68.3691" y="78.7281" width="180.246" height="250.687" fill="white"/>
</clipPath>
<clipPath id="clip1">
<rect x="112.819" y="332.011" width="97.7766" height="52.6489" fill="white"/>
</clipPath>
</defs>
</svg>
