<svg width="105" height="145" viewBox="0 0 105 145" fill="none" xmlns="http://www.w3.org/2000/svg">
<g clip-path="url(#clip0)">
<path d="M54.7263 0H50.2247C24.8423 0 4.26587 20.6664 4.26587 46.1597V63.6492C4.26587 89.1425 24.8423 109.809 50.2247 109.809H54.7263C80.1087 109.809 100.685 89.1425 100.685 63.6492V46.1597C100.685 20.6664 80.1087 0 54.7263 0Z" fill="#4F3320"/>
<path d="M10.5066 37.9578H94.4367C95.2558 37.9578 96.0669 38.1199 96.8236 38.435C97.5803 38.7501 98.2677 39.2119 98.8465 39.7941C99.4254 40.3762 99.8843 41.0672 100.197 41.8276C100.51 42.588 100.67 43.4028 100.669 44.2256V97.5345C100.682 103.753 99.4745 109.914 97.1158 115.664C94.7572 121.414 91.2936 126.641 86.9228 131.046C82.5521 135.451 77.36 138.947 71.6432 141.336C65.9264 143.725 59.797 144.959 53.6052 144.967H51.4112C38.9119 144.967 26.9244 139.98 18.0861 131.103C9.24766 122.226 4.28231 110.186 4.28231 97.6324V44.2582C4.27803 43.4337 4.43575 42.6165 4.74644 41.8534C5.05712 41.0902 5.51466 40.3961 6.09285 39.8109C6.67104 39.2256 7.35852 38.7607 8.1159 38.4427C8.87328 38.1247 9.68569 37.9599 10.5066 37.9578Z" fill="#372112"/>
<path d="M64.1115 106.912H40.3276V134.472H64.1115V106.912Z" fill="#EA6769"/>
<path d="M52.3295 123.96H52.1182C47.7349 123.946 43.5206 122.26 40.3279 119.243V134.464H64.1117V119.243C60.9201 122.256 56.7097 123.942 52.3295 123.96Z" fill="#EA9482"/>
<path d="M7.90617 39.6879H10.6364C11.3885 39.6879 12.1098 39.9879 12.6417 40.5221C13.1735 41.0563 13.4723 41.7807 13.4723 42.5361V58.9483C13.4723 59.7044 13.1737 60.4298 12.6421 60.9652C12.1106 61.5007 11.3893 61.8025 10.6364 61.8047H7.10173C6.34887 61.8025 5.62758 61.5007 5.09598 60.9652C4.56439 60.4298 4.26587 59.7044 4.26587 58.9483V43.3359C4.27016 42.3683 4.65532 41.4417 5.33732 40.7582C6.01931 40.0748 6.94277 39.69 7.90617 39.6879Z" fill="#4F3320"/>
<path d="M96.0616 38.6515C97.2943 38.6515 98.4765 39.1433 99.3482 40.0188C100.22 40.8942 100.71 42.0816 100.71 43.3197V57.9119C100.707 58.2859 100.632 58.6559 100.487 59.0007C100.343 59.3454 100.132 59.6582 99.8674 59.9212C99.6026 60.1841 99.2888 60.3921 98.9439 60.5333C98.599 60.6744 98.2298 60.746 97.8574 60.7438H94.3471C93.595 60.7438 92.8737 60.4438 92.3418 59.9096C91.81 59.3755 91.5112 58.651 91.5112 57.8956V43.2054C91.5134 42.6074 91.6328 42.0156 91.8626 41.4639C92.0924 40.9123 92.4282 40.4114 92.8507 39.9901C93.2733 39.5687 93.7743 39.2351 94.3252 39.0082C94.8762 38.7813 95.4662 38.6657 96.0616 38.6678V38.6515Z" fill="#4F3320"/>
<path d="M10.2952 57.3324C8.25903 57.3324 6.26856 57.9388 4.57551 59.075C2.88247 60.2112 1.56291 61.8262 0.783683 63.7156C0.00446139 65.605 -0.199419 67.6841 0.197824 69.6899C0.595068 71.6957 1.57559 73.5382 3.01541 74.9843C4.45522 76.4304 6.28966 77.4152 8.28674 77.8142C10.2838 78.2132 12.3538 78.0084 14.2351 77.2258C16.1163 76.4431 17.7242 75.1178 18.8554 73.4174C19.9867 71.7169 20.5905 69.7177 20.5905 67.6726C20.5905 64.9302 19.5058 62.3001 17.5751 60.361C15.6443 58.4218 13.0257 57.3324 10.2952 57.3324ZM10.2952 76.756C9.87767 76.7625 9.46763 76.6441 9.11729 76.4158C8.76695 76.1875 8.49215 75.8597 8.32787 75.4741C8.16358 75.0884 8.11724 74.6625 8.19474 74.2503C8.27223 73.8381 8.47007 73.4585 8.76306 73.1596C9.05605 72.8607 9.43095 72.6561 9.84006 72.5719C10.2492 72.4876 10.674 72.5275 11.0604 72.6865C11.4469 72.8455 11.7775 73.1164 12.0102 73.4646C12.2429 73.8129 12.3672 74.2229 12.3673 74.6423C12.3673 75.1986 12.1473 75.7321 11.7556 76.1254C11.364 76.5187 10.8328 76.7397 10.279 76.7397L10.2952 76.756Z" fill="#ED9380"/>
<path d="M10.2466 72.0879C12.6744 72.0879 14.6426 70.1111 14.6426 67.6727C14.6426 65.2342 12.6744 63.2574 10.2466 63.2574C7.81874 63.2574 5.85059 65.2342 5.85059 67.6727C5.85059 70.1111 7.81874 72.0879 10.2466 72.0879Z" fill="#E85658"/>
<path d="M12.3674 74.8708C12.3592 75.2891 12.2277 75.6955 11.9894 76.0387C11.7511 76.3818 11.4168 76.6462 11.0287 76.7984C10.6407 76.9506 10.2165 76.9837 9.80973 76.8935C9.40297 76.8034 9.032 76.594 8.74379 76.292C8.45558 75.9899 8.26309 75.6087 8.19071 75.1967C8.11833 74.7847 8.16931 74.3604 8.33719 73.9775C8.50507 73.5947 8.7823 73.2704 9.13377 73.0459C9.48525 72.8214 9.89516 72.7066 10.3116 72.7163C10.5876 72.7216 10.8599 72.7816 11.1128 72.8928C11.3656 73.0041 11.5941 73.1644 11.7851 73.3646C11.9762 73.5648 12.1259 73.8009 12.2258 74.0594C12.3258 74.3179 12.3739 74.5936 12.3674 74.8708V74.8708Z" stroke="#231F20" stroke-width="0.5" stroke-miterlimit="10"/>
<path d="M84.4097 67.6726C84.4097 69.7177 85.0135 71.7169 86.1447 73.4174C87.276 75.1178 88.8839 76.4432 90.7651 77.2258C92.6463 78.0084 94.7163 78.2132 96.7134 77.8142C98.7105 77.4152 100.545 76.4304 101.985 74.9843C103.425 73.5382 104.405 71.6957 104.802 69.6899C105.2 67.6841 104.996 65.605 104.216 63.7156C103.437 61.8262 102.118 60.2113 100.425 59.0751C98.7316 57.9389 96.7411 57.3324 94.7049 57.3324C93.355 57.3303 92.018 57.5952 90.7701 58.112C89.5221 58.6289 88.3878 59.3875 87.4318 60.3447C86.4758 61.3018 85.7169 62.4387 85.1983 63.6905C84.6798 64.9422 84.4118 66.2842 84.4097 67.64V67.6726ZM92.6085 74.6586C92.6053 74.2402 92.7257 73.8303 92.9547 73.4807C93.1836 73.1312 93.5107 72.8577 93.8945 72.695C94.2783 72.5323 94.7015 72.4876 95.1106 72.5666C95.5196 72.6457 95.8962 72.8449 96.1924 73.139C96.4887 73.4332 96.6914 73.809 96.7749 74.2189C96.8583 74.6288 96.8187 75.0544 96.6612 75.4417C96.5036 75.8291 96.2352 76.1607 95.8898 76.3947C95.5445 76.6287 95.1377 76.7544 94.7212 76.7561C94.1687 76.7582 93.6379 76.5405 93.245 76.1504C92.852 75.7604 92.629 75.2298 92.6247 74.6749L92.6085 74.6586Z" fill="#ED9380"/>
<path d="M94.6885 72.0879C97.1163 72.0879 99.0845 70.1111 99.0845 67.6727C99.0845 65.2342 97.1163 63.2574 94.6885 63.2574C92.2606 63.2574 90.2925 65.2342 90.2925 67.6727C90.2925 70.1111 92.2606 72.0879 94.6885 72.0879Z" fill="#E85658"/>
<path d="M92.6084 74.8709C92.6068 75.2896 92.7291 75.6994 92.9597 76.0483C93.1903 76.3971 93.5189 76.6693 93.9038 76.8303C94.2887 76.9913 94.7125 77.0338 95.1215 76.9525C95.5305 76.8713 95.9063 76.6698 96.2011 76.3737C96.4959 76.0776 96.6965 75.7002 96.7775 75.2894C96.8584 74.8786 96.816 74.4529 96.6557 74.0664C96.4954 73.6798 96.2244 73.3498 95.8771 73.1181C95.5298 72.8865 95.1218 72.7637 94.7048 72.7653V72.7653C94.4314 72.762 94.16 72.8132 93.9063 72.9159C93.6526 73.0185 93.4217 73.1705 93.2268 73.3632C93.0319 73.5559 92.8769 73.7855 92.7708 74.0386C92.6646 74.2918 92.6095 74.5636 92.6084 74.8382V74.8709Z" stroke="#231F20" stroke-width="0.5" stroke-miterlimit="10"/>
<path d="M99.6127 73.6793C100.196 73.6793 100.669 73.2043 100.669 72.6183C100.669 72.0324 100.196 71.5574 99.6127 71.5574C99.0293 71.5574 98.5564 72.0324 98.5564 72.6183C98.5564 73.2043 99.0293 73.6793 99.6127 73.6793Z" fill="#CECAC8"/>
<path d="M52.4674 8.35706C62.8117 8.35706 72.7323 12.4843 80.0468 19.8308C87.3614 27.1773 91.4706 37.1413 91.4706 47.5308V76.0379C91.4706 86.4274 87.3614 96.3914 80.0468 103.738C72.7323 111.084 62.8117 115.212 52.4674 115.212C42.1231 115.212 32.2024 111.084 24.8879 103.738C17.5734 96.3914 13.4641 86.4274 13.4641 76.0379V47.539C13.463 42.3939 14.4711 37.299 16.4307 32.5453C18.3903 27.7916 21.2631 23.4721 24.885 19.8337C28.5069 16.1952 32.807 13.3089 37.5396 11.3398C42.2722 9.37059 47.3447 8.35706 52.4674 8.35706Z" fill="#F4C09B"/>
<path d="M52.3863 94.9392C42.042 94.9392 32.1214 90.812 24.8068 83.4655C17.4923 76.119 13.3831 66.155 13.3831 55.7655V75.9236C13.3831 86.3132 17.4923 96.2772 24.8068 103.624C32.1214 110.97 42.042 115.097 52.3863 115.097C62.7306 115.097 72.6512 110.97 79.9658 103.624C87.2803 96.2772 91.3896 86.3132 91.3896 75.9236V55.7573C91.3896 66.1468 87.2803 76.1108 79.9658 83.4573C72.6512 90.8038 62.7306 94.9311 52.3863 94.9311V94.9392Z" fill="#F5B596"/>
<path d="M52.1832 62.8086C52.9202 62.8086 53.6499 62.9545 54.3307 63.238C55.0115 63.5215 55.6299 63.9371 56.1506 64.4608C56.6714 64.9846 57.0842 65.6063 57.3655 66.2905C57.6468 66.9747 57.791 67.7078 57.7899 68.448V79.8737C57.7899 80.8434 57.4064 81.7733 56.7237 82.459C56.041 83.1447 55.1151 83.5299 54.1496 83.5299H50.2087C49.2439 83.5277 48.3192 83.1418 47.637 82.4566C46.9547 81.7714 46.5705 80.8427 46.5684 79.8737V68.448C46.5684 66.9523 47.1599 65.5179 48.2129 64.4603C49.2659 63.4027 50.6941 62.8086 52.1832 62.8086Z" fill="#DE6057"/>
<path d="M54.6938 67.485H54.6857C53.9317 67.485 53.3206 68.0988 53.3206 68.8561V74.7158C53.3206 75.473 53.9317 76.0869 54.6857 76.0869H54.6938C55.4477 76.0869 56.0589 75.473 56.0589 74.7158V68.8561C56.0589 68.0988 55.4477 67.485 54.6938 67.485Z" fill="#D8726F"/>
<path d="M25.596 81.3917C29.1368 81.3917 32.0071 79.0057 32.0071 76.0624C32.0071 73.1191 29.1368 70.7332 25.596 70.7332C22.0552 70.7332 19.1848 73.1191 19.1848 76.0624C19.1848 79.0057 22.0552 81.3917 25.596 81.3917Z" fill="#EA9B9F"/>
<path d="M25.5958 79.4002C24.2168 79.4837 22.8496 79.1028 21.7104 78.3179C20.5713 77.533 19.7253 76.3888 19.3065 75.0667C19.2263 75.3982 19.1827 75.7375 19.1765 76.0786C19.1765 79.0085 22.053 81.3916 25.5958 81.3916C29.1386 81.3916 32.007 79.0085 32.007 76.0786C32.0057 75.7382 31.9676 75.3988 31.8932 75.0667C31.4692 76.3872 30.6208 77.5291 29.4812 78.3133C28.3415 79.0976 26.975 79.4799 25.5958 79.4002Z" fill="#D3848B"/>
<path d="M79.2984 81.3917C82.8392 81.3917 85.7095 79.0057 85.7095 76.0624C85.7095 73.1191 82.8392 70.7332 79.2984 70.7332C75.7576 70.7332 72.8872 73.1191 72.8872 76.0624C72.8872 79.0057 75.7576 81.3917 79.2984 81.3917Z" fill="#EA9B9F"/>
<path d="M59.8456 92.2624V94.4088C59.8456 96.4328 57.3104 98.0976 54.1577 98.0976H50.8586C47.7302 98.0976 45.1707 96.4654 45.1707 94.4088V92.2624C45.1723 91.6709 45.3695 91.0968 45.7313 90.6301C46.4721 89.7261 47.4887 89.0923 48.6241 88.8265H48.7134C48.9837 88.8016 49.2557 88.8016 49.526 88.8265C50.5074 88.7951 51.4764 89.0533 52.3131 89.5692C53.1555 89.0242 54.1389 88.7404 55.1409 88.7531C55.689 88.7424 56.2359 88.8083 56.766 88.9489H56.961C57.3839 89.0992 57.7875 89.2992 58.1636 89.5447C58.2193 89.5933 58.2792 89.637 58.3424 89.6753C58.7901 89.9439 59.1627 90.3221 59.4256 90.7745C59.6885 91.2269 59.833 91.7387 59.8456 92.2624Z" fill="#E96869"/>
<path d="M56.9853 91.8298H47.8926C47.6189 91.8298 47.397 92.0527 47.397 92.3277V92.6704C47.397 92.9454 47.6189 93.1683 47.8926 93.1683H56.9853C57.259 93.1683 57.4809 92.9454 57.4809 92.6704V92.3277C57.4809 92.0527 57.259 91.8298 56.9853 91.8298Z" fill="#BD3B39"/>
<path d="M98.9708 41.1487L97.0613 44.4785C96.4527 45.5186 95.4588 46.2743 94.2969 46.5802C93.135 46.8861 91.8997 46.7173 90.8614 46.1107L54.2959 24.9569C53.636 24.585 53.0802 24.052 52.6797 23.4073C52.2792 22.7625 52.0469 22.0268 52.0044 21.2681C51.9964 21.2167 51.9964 21.1644 52.0044 21.113C52.0125 21.1644 52.0125 21.2167 52.0044 21.2681C51.946 22.0068 51.7099 22.7202 51.3165 23.3471C50.923 23.974 50.3839 24.4956 49.7455 24.8671L13.7244 45.8006C12.6866 46.4094 11.4506 46.5794 10.2881 46.2733C9.12551 45.9673 8.1315 45.2102 7.52447 44.1684L5.67994 40.9039C5.07345 39.8603 4.90395 38.6177 5.20863 37.4488C5.51331 36.2798 6.26727 35.28 7.30507 34.6687L16.739 29.1599C19.855 22.3231 24.8642 16.5315 31.1686 12.4764C37.4729 8.42137 44.806 6.27427 52.2924 6.29148C59.7787 6.30869 67.1019 8.48948 73.3877 12.5735C79.6735 16.6575 84.6563 22.4721 87.7411 29.3232L97.362 34.8809C97.8813 35.1826 98.3355 35.5851 98.6983 36.065C99.061 36.5449 99.325 37.0926 99.4748 37.676C99.6245 38.2595 99.6571 38.8671 99.5706 39.4633C99.4841 40.0595 99.2802 40.6325 98.9708 41.1487Z" fill="#4F3320"/>
<path d="M51.988 21.1783C51.9799 21.2297 51.9799 21.282 51.988 21.3334C51.996 21.282 51.996 21.2297 51.988 21.1783Z" fill="#4F3320"/>
<path d="M28.5131 49.7426H36.8663C37.25 49.7426 37.63 49.8186 37.9845 49.9664C38.3389 50.1141 38.6609 50.3307 38.9319 50.6036C39.2028 50.8765 39.4175 51.2005 39.5637 51.5569C39.7098 51.9133 39.7844 52.2951 39.7834 52.6806C39.7834 53.0653 39.7079 53.4463 39.5613 53.8018C39.4147 54.1573 39.1999 54.4803 38.929 54.7523C38.6581 55.0244 38.3365 55.2402 37.9826 55.3874C37.6287 55.5347 37.2493 55.6105 36.8663 55.6105H28.5131C27.7394 55.6105 26.9974 55.3018 26.4504 54.7523C25.9033 54.2029 25.5959 53.4576 25.5959 52.6806C25.5959 51.9028 25.903 51.1567 26.4499 50.606C26.9967 50.0552 27.7387 49.7447 28.5131 49.7426Z" fill="#4F3320"/>
<path d="M36.8661 53.9211H28.5129C27.8807 53.9177 27.2671 53.7058 26.7665 53.318C26.2658 52.9302 25.9059 52.388 25.7421 51.7747C25.5973 52.2106 25.559 52.675 25.6305 53.1289C25.702 53.5828 25.8811 54.0127 26.1528 54.3824C26.4245 54.7522 26.7808 55.0508 27.1916 55.2532C27.6023 55.4555 28.0555 55.5557 28.5129 55.5451H36.8661C37.2471 55.5473 37.6247 55.4741 37.9775 55.3296C38.3303 55.1852 38.6512 54.9724 38.9221 54.7033C39.193 54.4343 39.4085 54.1143 39.5562 53.7616C39.704 53.409 39.7811 53.0305 39.7833 52.6479C39.7814 52.3714 39.7403 52.0966 39.6614 51.8318C39.4767 52.433 39.1063 52.9596 38.6037 53.3353C38.1012 53.7109 37.4926 53.9161 36.8661 53.9211Z" fill="#372112"/>
<path d="M35.4766 50.8279H32.1532C31.8256 50.8279 31.5601 51.0946 31.5601 51.4236V51.6848C31.5601 52.0138 31.8256 52.2806 32.1532 52.2806H35.4766C35.8042 52.2806 36.0698 52.0138 36.0698 51.6848V51.4236C36.0698 51.0946 35.8042 50.8279 35.4766 50.8279Z" fill="#5C493D"/>
<path d="M36.8663 55.5615H28.5131C27.9488 55.5625 27.3965 55.3988 26.9232 55.0901C26.45 54.7815 26.0764 54.3413 25.8478 53.8231C25.683 54.1929 25.5972 54.5932 25.5959 54.9983C25.5959 55.3831 25.6714 55.7641 25.818 56.1195C25.9646 56.475 26.1795 56.798 26.4504 57.0701C26.7212 57.3421 27.0428 57.5579 27.3967 57.7052C27.7507 57.8524 28.13 57.9282 28.5131 57.9282H36.8663C37.2472 57.9304 37.6248 57.8571 37.9776 57.7127C38.3304 57.5682 38.6514 57.3554 38.9223 57.0864C39.1931 56.8174 39.4086 56.4974 39.5564 56.1447C39.7041 55.792 39.7812 55.4136 39.7834 55.031C39.7918 54.6266 39.7114 54.2253 39.5477 53.8558C39.3116 54.3691 38.933 54.8031 38.4574 55.1056C37.9817 55.4082 37.4292 55.5665 36.8663 55.5615Z" fill="#EE947E"/>
<path d="M68.0851 49.6364H76.4464C77.2201 49.6364 77.9621 49.945 78.5091 50.4945C79.0562 51.0439 79.3635 51.7892 79.3635 52.5662C79.3635 53.3433 79.0562 54.0885 78.5091 54.6379C77.9621 55.1874 77.2201 55.4961 76.4464 55.4961H68.0851C67.3114 55.4961 66.5694 55.1874 66.0224 54.6379C65.4753 54.0885 65.168 53.3433 65.168 52.5662C65.168 51.7892 65.4753 51.0439 66.0224 50.4945C66.5694 49.945 67.3114 49.6364 68.0851 49.6364Z" fill="#4F3320"/>
<path d="M76.4464 53.8068H68.0282C67.421 53.7961 66.8324 53.5942 66.3455 53.2296C65.8586 52.865 65.4979 52.3561 65.3142 51.7747C65.1711 52.2032 65.1324 52.66 65.2016 53.1066C65.2707 53.5533 65.4456 53.9767 65.7116 54.3414C65.9775 54.706 66.3267 55.0013 66.7298 55.2022C67.1329 55.4032 67.5782 55.504 68.0282 55.4962H76.3814C76.7623 55.4983 77.14 55.4251 77.4927 55.2806C77.8455 55.1362 78.1665 54.9234 78.4374 54.6544C78.7083 54.3853 78.9237 54.0653 79.0715 53.7127C79.2192 53.36 79.2964 52.9816 79.2985 52.5989C79.317 52.3259 79.3006 52.0517 79.2498 51.7828C79.0545 52.3739 78.6783 52.8879 78.1748 53.2513C77.6714 53.6148 77.0664 53.8092 76.4464 53.8068Z" fill="#372112"/>
<path d="M75.0487 50.7136H71.7253C71.3976 50.7136 71.1321 50.9804 71.1321 51.3094V51.5705C71.1321 51.8996 71.3976 52.1663 71.7253 52.1663H75.0487C75.3763 52.1663 75.6418 51.8996 75.6418 51.5705V51.3094C75.6418 50.9804 75.3763 50.7136 75.0487 50.7136Z" fill="#5C493D"/>
<path d="M76.4462 55.4472H68.028C67.4636 55.4493 66.9108 55.286 66.4373 54.9772C65.9639 54.6684 65.5905 54.2276 65.3628 53.7089C65.1916 54.0768 65.1028 54.4779 65.1028 54.8841C65.1049 55.6619 65.4141 56.4071 65.9624 56.9563C66.5108 57.5055 67.2536 57.814 68.028 57.8139H76.3812C76.7622 57.8161 77.1398 57.7429 77.4926 57.5984C77.8454 57.454 78.1663 57.2412 78.4372 56.9721C78.7081 56.7031 78.9236 56.3831 79.0713 56.0305C79.2191 55.6778 79.2962 55.2993 79.2983 54.9167C79.2983 54.5106 79.2096 54.1094 79.0383 53.7415C78.811 54.2429 78.4468 54.6692 77.9881 54.9711C77.5293 55.273 76.9947 55.4381 76.4462 55.4472Z" fill="#EE947E"/>
<path d="M4.82568 72.1874L3.08043 74.8539C2.87583 75.1665 2.96228 75.5865 3.27353 75.792L3.48401 75.931C3.79526 76.1365 4.21345 76.0497 4.41805 75.7371L6.1633 73.0706C6.36791 72.758 6.28146 72.338 5.97021 72.1325L5.75973 71.9935C5.44848 71.788 5.03029 71.8748 4.82568 72.1874Z" fill="#84807E"/>
<path d="M32.6977 56.851H32.6815C30.4241 56.851 28.5942 58.6889 28.5942 60.956V64.6612C28.5942 66.9284 30.4241 68.7663 32.6815 68.7663H32.6977C34.955 68.7663 36.7849 66.9284 36.7849 64.6612V60.956C36.7849 58.6889 34.955 56.851 32.6977 56.851Z" fill="black"/>
<path d="M72.2697 56.851H72.2535C69.9962 56.851 68.1663 58.6889 68.1663 60.956V64.6612C68.1663 66.9284 69.9962 68.7663 72.2535 68.7663H72.2697C74.527 68.7663 76.3569 66.9284 76.3569 64.6612V60.956C76.3569 58.6889 74.527 56.851 72.2697 56.851Z" fill="black"/>
<path d="M42.4839 18.4047L13.2055 35.3072C12.2329 35.8688 11.8967 37.1144 12.4546 38.0893C13.0126 39.0643 14.2535 39.3995 15.2262 38.838L44.5045 21.9354C45.4772 21.3739 45.8133 20.1283 45.2554 19.1533C44.6974 18.1783 43.4565 17.8431 42.4839 18.4047Z" fill="#5C493D"/>
<path d="M33.056 10.8411L24.7593 15.6521C23.7916 16.2133 23.4591 17.4546 24.0167 18.4246C24.5743 19.3946 25.8108 19.726 26.7785 19.1648L35.0752 14.3538C36.0429 13.7927 36.3754 12.5514 35.8178 11.5814C35.2602 10.6114 34.0237 10.28 33.056 10.8411Z" fill="#5C493D"/>
<path d="M60.9524 17.4147C59.9846 16.8536 58.7481 17.185 58.1905 18.155C57.6329 19.125 57.9654 20.3663 58.9331 20.9274L89.6217 38.7229C90.5894 39.2841 91.8259 38.9527 92.3835 37.9827C92.9411 37.0127 92.6086 35.7714 91.6409 35.2102L60.9524 17.4147Z" fill="#5C493D"/>
<path d="M80.3813 17.5878C79.4136 17.0267 78.1771 17.3581 77.6195 18.3281C77.0619 19.2981 77.3944 20.5394 78.3621 21.1005L86.6588 25.9116C87.6265 26.4727 88.863 26.1413 89.4206 25.1713C89.9782 24.2013 89.6457 22.96 88.678 22.3989L80.3813 17.5878Z" fill="#5C493D"/>
<path d="M54.1821 80.1838H50.2411C49.2757 80.1838 48.3497 79.7986 47.6671 79.1129C46.9844 78.4272 46.6008 77.4973 46.6008 76.5276V79.8982C46.6051 80.865 46.9906 81.7908 47.6728 82.4729C48.355 83.1551 49.2785 83.5381 50.2411 83.538H54.1821C54.658 83.5402 55.1297 83.4482 55.5702 83.2672C56.0107 83.0863 56.4114 82.82 56.7494 82.4835C57.0875 82.147 57.3562 81.747 57.5403 81.3062C57.7244 80.8654 57.8203 80.3925 57.8224 79.9145V76.5276C57.8267 77.0062 57.7365 77.4809 57.5571 77.9243C57.3778 78.3677 57.1127 78.771 56.7772 79.111C56.4418 79.4509 56.0426 79.7207 55.6028 79.9049C55.1629 80.089 54.6911 80.1838 54.2146 80.1838H54.1821Z" fill="#D14E4A"/>
<path d="M79.2497 79.4002C77.8683 79.486 76.498 79.1063 75.3558 78.3213C74.2136 77.5363 73.3649 76.3909 72.9442 75.0667C72.868 75.3984 72.8326 75.7382 72.8385 76.0786C72.8385 79.0085 75.7069 81.3916 79.2497 81.3916C82.7925 81.3916 85.6608 79.0085 85.6608 76.0786C85.6627 75.737 85.6189 75.3966 85.5308 75.0667C85.1148 76.389 84.2707 77.5337 83.1326 78.3189C81.9946 79.1041 80.6278 79.4847 79.2497 79.4002Z" fill="#D3848B"/>
<path d="M66.8661 128.327H38.7756V144.992H66.8661V128.327Z" fill="#F7F7F7"/>
<path d="M45.6827 125.878H35.4199V144.992H45.6827V125.878Z" fill="#B92025"/>
<path d="M68.9383 125.878H58.6755V144.992H68.9383V125.878Z" fill="#B92025"/>
</g>
<defs>
<clipPath id="clip0">
<rect width="105" height="145" fill="white"/>
</clipPath>
</defs>
</svg>
