<svg width="219" height="106" viewBox="0 0 219 106" fill="none" xmlns="http://www.w3.org/2000/svg">
<circle cx="210.973" cy="7.28191" r="7.28191" transform="rotate(90 210.973 7.28191)" fill="#F0F0F0"/>
<circle cx="210.973" cy="29.9368" r="7.28191" transform="rotate(90 210.973 29.9368)" fill="#F0F0F0"/>
<circle cx="210.973" cy="52.5912" r="7.28191" transform="rotate(90 210.973 52.5912)" fill="#F0F0F0"/>
<circle cx="210.973" cy="75.2464" r="7.28191" transform="rotate(90 210.973 75.2464)" fill="#F0F0F0"/>
<circle cx="210.973" cy="97.9008" r="7.28191" transform="rotate(90 210.973 97.9008)" fill="#F0F0F0"/>
<circle cx="188.318" cy="97.9008" r="7.28191" transform="rotate(90 188.318 97.9008)" fill="#F0F0F0"/>
<circle cx="188.318" cy="75.2464" r="7.28191" transform="rotate(90 188.318 75.2464)" fill="#F0F0F0"/>
<circle cx="188.318" cy="52.5912" r="7.28191" transform="rotate(90 188.318 52.5912)" fill="#F0F0F0"/>
<circle cx="188.318" cy="29.9368" r="7.28191" transform="rotate(90 188.318 29.9368)" fill="#F0F0F0"/>
<circle cx="188.318" cy="7.28191" r="7.28191" transform="rotate(90 188.318 7.28191)" fill="#F0F0F0"/>
<circle cx="165.663" cy="97.9008" r="7.28191" transform="rotate(90 165.663 97.9008)" fill="#F0F0F0"/>
<circle cx="165.663" cy="75.2464" r="7.28191" transform="rotate(90 165.663 75.2464)" fill="#F0F0F0"/>
<circle cx="165.663" cy="52.5912" r="7.28191" transform="rotate(90 165.663 52.5912)" fill="#F0F0F0"/>
<circle cx="165.663" cy="29.9368" r="7.28191" transform="rotate(90 165.663 29.9368)" fill="#F0F0F0"/>
<circle cx="165.663" cy="7.28191" r="7.28191" transform="rotate(90 165.663 7.28191)" fill="#F0F0F0"/>
<circle cx="143.009" cy="97.9008" r="7.28191" transform="rotate(90 143.009 97.9008)" fill="#F0F0F0"/>
<circle cx="143.009" cy="75.2464" r="7.28191" transform="rotate(90 143.009 75.2464)" fill="#F0F0F0"/>
<circle cx="143.009" cy="52.5912" r="7.28191" transform="rotate(90 143.009 52.5912)" fill="#F0F0F0"/>
<circle cx="143.009" cy="29.9368" r="7.28191" transform="rotate(90 143.009 29.9368)" fill="#F0F0F0"/>
<circle cx="143.009" cy="7.28191" r="7.28191" transform="rotate(90 143.009 7.28191)" fill="#F0F0F0"/>
<circle cx="120.354" cy="97.9008" r="7.28191" transform="rotate(90 120.354 97.9008)" fill="#F0F0F0"/>
<circle cx="120.354" cy="75.2464" r="7.28191" transform="rotate(90 120.354 75.2464)" fill="#F0F0F0"/>
<circle cx="120.354" cy="52.5912" r="7.28191" transform="rotate(90 120.354 52.5912)" fill="#F0F0F0"/>
<circle cx="120.354" cy="29.9368" r="7.28191" transform="rotate(90 120.354 29.9368)" fill="#F0F0F0"/>
<circle cx="120.354" cy="7.28191" r="7.28191" transform="rotate(90 120.354 7.28191)" fill="#F0F0F0"/>
<circle cx="97.9014" cy="7.28191" r="7.28191" transform="rotate(90 97.9014 7.28191)" fill="#F0F0F0"/>
<circle cx="97.9014" cy="29.9368" r="7.28191" transform="rotate(90 97.9014 29.9368)" fill="#F0F0F0"/>
<circle cx="97.9014" cy="52.5915" r="7.28191" transform="rotate(90 97.9014 52.5915)" fill="#F0F0F0"/>
<circle cx="97.9014" cy="75.2464" r="7.28191" transform="rotate(90 97.9014 75.2464)" fill="#F0F0F0"/>
<circle cx="97.9014" cy="97.9008" r="7.28191" transform="rotate(90 97.9014 97.9008)" fill="#F0F0F0"/>
<circle cx="75.2466" cy="97.9008" r="7.28191" transform="rotate(90 75.2466 97.9008)" fill="#F0F0F0"/>
<circle cx="75.2466" cy="75.2464" r="7.28191" transform="rotate(90 75.2466 75.2464)" fill="#F0F0F0"/>
<circle cx="75.2466" cy="52.5912" r="7.28191" transform="rotate(90 75.2466 52.5912)" fill="#F0F0F0"/>
<circle cx="75.2466" cy="29.9368" r="7.28191" transform="rotate(90 75.2466 29.9368)" fill="#F0F0F0"/>
<circle cx="75.2466" cy="7.28191" r="7.28191" transform="rotate(90 75.2466 7.28191)" fill="#F0F0F0"/>
<circle cx="52.5918" cy="97.9008" r="7.28191" transform="rotate(90 52.5918 97.9008)" fill="#F0F0F0"/>
<circle cx="52.5918" cy="75.2464" r="7.28191" transform="rotate(90 52.5918 75.2464)" fill="#F0F0F0"/>
<circle cx="52.5918" cy="52.5912" r="7.28191" transform="rotate(90 52.5918 52.5912)" fill="#F0F0F0"/>
<circle cx="52.5918" cy="29.9368" r="7.28191" transform="rotate(90 52.5918 29.9368)" fill="#F0F0F0"/>
<circle cx="52.5918" cy="7.28191" r="7.28191" transform="rotate(90 52.5918 7.28191)" fill="#F0F0F0"/>
<circle cx="29.937" cy="97.9008" r="7.28191" transform="rotate(90 29.937 97.9008)" fill="#F0F0F0"/>
<circle cx="29.937" cy="75.2464" r="7.28191" transform="rotate(90 29.937 75.2464)" fill="#F0F0F0"/>
<circle cx="29.937" cy="52.5912" r="7.28191" transform="rotate(90 29.937 52.5912)" fill="#F0F0F0"/>
<circle cx="29.937" cy="29.9368" r="7.28191" transform="rotate(90 29.937 29.9368)" fill="#F0F0F0"/>
<circle cx="29.937" cy="7.28191" r="7.28191" transform="rotate(90 29.937 7.28191)" fill="#F0F0F0"/>
<circle cx="7.28194" cy="97.9008" r="7.28191" transform="rotate(90 7.28194 97.9008)" fill="#F0F0F0"/>
<circle cx="7.28195" cy="75.2464" r="7.28191" transform="rotate(90 7.28195 75.2464)" fill="#F0F0F0"/>
<circle cx="7.28194" cy="52.5912" r="7.28191" transform="rotate(90 7.28194 52.5912)" fill="#F0F0F0"/>
<circle cx="7.28194" cy="29.9368" r="7.28191" transform="rotate(90 7.28194 29.9368)" fill="#F0F0F0"/>
<circle cx="7.28194" cy="7.28191" r="7.28191" transform="rotate(90 7.28194 7.28191)" fill="#F0F0F0"/>
</svg>
