<svg width="72" height="260" viewBox="0 0 72 260" fill="none" xmlns="http://www.w3.org/2000/svg">
<circle cx="9.50056" cy="8.65388" r="8.65388" fill="#F0F0F0"/>
<circle cx="36.4234" cy="8.65388" r="8.65388" fill="#F0F0F0"/>
<circle cx="63.3458" cy="8.65388" r="8.65388" fill="#F0F0F0"/>
<circle cx="63.3458" cy="35.5772" r="8.65388" fill="#F0F0F0"/>
<circle cx="36.4234" cy="35.5772" r="8.65388" fill="#F0F0F0"/>
<circle cx="9.50056" cy="35.5772" r="8.65388" fill="#F0F0F0"/>
<circle cx="63.3458" cy="62.5005" r="8.65388" fill="#F0F0F0"/>
<circle cx="36.4234" cy="62.5005" r="8.65388" fill="#F0F0F0"/>
<circle cx="9.50056" cy="62.5005" r="8.65388" fill="#F0F0F0"/>
<circle cx="63.3458" cy="89.4235" r="8.65388" fill="#F0F0F0"/>
<circle cx="36.4234" cy="89.4235" r="8.65388" fill="#F0F0F0"/>
<circle cx="9.50056" cy="89.4235" r="8.65388" fill="#F0F0F0"/>
<circle cx="63.3458" cy="116.347" r="8.65388" fill="#F0F0F0"/>
<circle cx="36.4234" cy="116.347" r="8.65388" fill="#F0F0F0"/>
<circle cx="9.50056" cy="116.347" r="8.65388" fill="#F0F0F0"/>
<circle cx="9.50056" cy="143.029" r="8.65388" fill="#F0F0F0"/>
<circle cx="36.4234" cy="143.029" r="8.65388" fill="#F0F0F0"/>
<circle cx="63.3458" cy="143.029" r="8.65388" fill="#F0F0F0"/>
<circle cx="63.3458" cy="169.953" r="8.65388" fill="#F0F0F0"/>
<circle cx="36.4234" cy="169.953" r="8.65388" fill="#F0F0F0"/>
<circle cx="9.50056" cy="169.953" r="8.65388" fill="#F0F0F0"/>
<circle cx="63.3458" cy="196.876" r="8.65388" fill="#F0F0F0"/>
<circle cx="36.4234" cy="196.876" r="8.65388" fill="#F0F0F0"/>
<circle cx="9.50056" cy="196.876" r="8.65388" fill="#F0F0F0"/>
<circle cx="63.3458" cy="223.799" r="8.65388" fill="#F0F0F0"/>
<circle cx="36.4234" cy="223.799" r="8.65388" fill="#F0F0F0"/>
<circle cx="9.50056" cy="223.799" r="8.65388" fill="#F0F0F0"/>
<circle cx="63.3458" cy="250.722" r="8.65388" fill="#F0F0F0"/>
<circle cx="36.4234" cy="250.722" r="8.65388" fill="#F0F0F0"/>
<circle cx="9.50056" cy="250.722" r="8.65388" fill="#F0F0F0"/>
</svg>
