<svg width="252" height="252" viewBox="0 0 252 252" fill="none" xmlns="http://www.w3.org/2000/svg">
<circle cx="8.40779" cy="8.40816" r="8.40779" fill="#F0F0F0"/>
<circle cx="34.5655" cy="8.40779" r="8.40779" fill="#F0F0F0"/>
<circle cx="60.7227" cy="8.40779" r="8.40779" fill="#F0F0F0"/>
<circle cx="86.8804" cy="8.40779" r="8.40779" fill="#F0F0F0"/>
<circle cx="113.038" cy="8.40779" r="8.40779" fill="#F0F0F0"/>
<circle cx="113.038" cy="34.5654" r="8.40779" fill="#F0F0F0"/>
<circle cx="86.8804" cy="34.5654" r="8.40779" fill="#F0F0F0"/>
<circle cx="60.7227" cy="34.5654" r="8.40779" fill="#F0F0F0"/>
<circle cx="34.5655" cy="34.5654" r="8.40779" fill="#F0F0F0"/>
<circle cx="8.40779" cy="34.5654" r="8.40779" fill="#F0F0F0"/>
<circle cx="113.038" cy="60.7231" r="8.40779" fill="#F0F0F0"/>
<circle cx="86.8804" cy="60.7231" r="8.40779" fill="#F0F0F0"/>
<circle cx="60.7227" cy="60.7231" r="8.40779" fill="#F0F0F0"/>
<circle cx="34.5655" cy="60.7231" r="8.40779" fill="#F0F0F0"/>
<circle cx="8.40779" cy="60.7231" r="8.40779" fill="#F0F0F0"/>
<circle cx="113.038" cy="86.8804" r="8.40779" fill="#F0F0F0"/>
<circle cx="86.8804" cy="86.8804" r="8.40779" fill="#F0F0F0"/>
<circle cx="60.7227" cy="86.8804" r="8.40779" fill="#F0F0F0"/>
<circle cx="34.5655" cy="86.8804" r="8.40779" fill="#F0F0F0"/>
<circle cx="8.40779" cy="86.8804" r="8.40779" fill="#F0F0F0"/>
<circle cx="113.038" cy="113.038" r="8.40779" fill="#F0F0F0"/>
<circle cx="86.8804" cy="113.038" r="8.40779" fill="#F0F0F0"/>
<circle cx="60.7227" cy="113.038" r="8.40779" fill="#F0F0F0"/>
<circle cx="34.5655" cy="113.038" r="8.40779" fill="#F0F0F0"/>
<circle cx="8.40779" cy="113.038" r="8.40779" fill="#F0F0F0"/>
<circle cx="138.963" cy="8.40779" r="8.40779" fill="#F0F0F0"/>
<circle cx="165.12" cy="8.40779" r="8.40779" fill="#F0F0F0"/>
<circle cx="191.277" cy="8.40779" r="8.40779" fill="#F0F0F0"/>
<circle cx="217.435" cy="8.40779" r="8.40779" fill="#F0F0F0"/>
<circle cx="243.592" cy="8.40779" r="8.40779" fill="#F0F0F0"/>
<circle cx="243.592" cy="34.5654" r="8.40779" fill="#F0F0F0"/>
<circle cx="217.435" cy="34.5654" r="8.40779" fill="#F0F0F0"/>
<circle cx="191.277" cy="34.5654" r="8.40779" fill="#F0F0F0"/>
<circle cx="165.12" cy="34.5654" r="8.40779" fill="#F0F0F0"/>
<circle cx="138.962" cy="34.5654" r="8.40779" fill="#F0F0F0"/>
<circle cx="243.592" cy="60.7231" r="8.40779" fill="#F0F0F0"/>
<circle cx="217.435" cy="60.7231" r="8.40779" fill="#F0F0F0"/>
<circle cx="191.277" cy="60.7231" r="8.40779" fill="#F0F0F0"/>
<circle cx="165.12" cy="60.7231" r="8.40779" fill="#F0F0F0"/>
<circle cx="138.962" cy="60.7231" r="8.40779" fill="#F0F0F0"/>
<circle cx="243.592" cy="86.8806" r="8.40779" fill="#F0F0F0"/>
<circle cx="217.435" cy="86.8806" r="8.40779" fill="#F0F0F0"/>
<circle cx="191.277" cy="86.8806" r="8.40779" fill="#F0F0F0"/>
<circle cx="165.12" cy="86.8806" r="8.40779" fill="#F0F0F0"/>
<circle cx="138.962" cy="86.8806" r="8.40779" fill="#F0F0F0"/>
<circle cx="243.592" cy="113.038" r="8.40779" fill="#F0F0F0"/>
<circle cx="217.435" cy="113.038" r="8.40779" fill="#F0F0F0"/>
<circle cx="191.277" cy="113.038" r="8.40779" fill="#F0F0F0"/>
<circle cx="165.12" cy="113.038" r="8.40779" fill="#F0F0F0"/>
<circle cx="138.962" cy="113.038" r="8.40779" fill="#F0F0F0"/>
<circle cx="138.963" cy="138.962" r="8.40779" fill="#F0F0F0"/>
<circle cx="165.12" cy="138.962" r="8.40779" fill="#F0F0F0"/>
<circle cx="191.277" cy="138.962" r="8.40779" fill="#F0F0F0"/>
<circle cx="217.435" cy="138.962" r="8.40779" fill="#F0F0F0"/>
<circle cx="243.592" cy="138.962" r="8.40779" fill="#F0F0F0"/>
<circle cx="243.592" cy="165.12" r="8.40779" fill="#F0F0F0"/>
<circle cx="217.435" cy="165.12" r="8.40779" fill="#F0F0F0"/>
<circle cx="191.277" cy="165.12" r="8.40779" fill="#F0F0F0"/>
<circle cx="165.12" cy="165.12" r="8.40779" fill="#F0F0F0"/>
<circle cx="138.962" cy="165.12" r="8.40779" fill="#F0F0F0"/>
<circle cx="243.592" cy="191.277" r="8.40779" fill="#F0F0F0"/>
<circle cx="217.435" cy="191.277" r="8.40779" fill="#F0F0F0"/>
<circle cx="191.277" cy="191.277" r="8.40779" fill="#F0F0F0"/>
<circle cx="165.12" cy="191.277" r="8.40779" fill="#F0F0F0"/>
<circle cx="138.962" cy="191.277" r="8.40779" fill="#F0F0F0"/>
<circle cx="243.592" cy="217.435" r="8.40779" fill="#F0F0F0"/>
<circle cx="217.435" cy="217.435" r="8.40779" fill="#F0F0F0"/>
<circle cx="191.277" cy="217.435" r="8.40779" fill="#F0F0F0"/>
<circle cx="165.12" cy="217.435" r="8.40779" fill="#F0F0F0"/>
<circle cx="138.962" cy="217.435" r="8.40779" fill="#F0F0F0"/>
<circle cx="243.592" cy="243.593" r="8.40779" fill="#F0F0F0"/>
<circle cx="217.435" cy="243.593" r="8.40779" fill="#F0F0F0"/>
<circle cx="191.277" cy="243.593" r="8.40779" fill="#F0F0F0"/>
<circle cx="165.12" cy="243.593" r="8.40779" fill="#F0F0F0"/>
<circle cx="138.962" cy="243.593" r="8.40779" fill="#F0F0F0"/>
<circle cx="8.40779" cy="138.962" r="8.40779" fill="#F0F0F0"/>
<circle cx="34.5655" cy="138.962" r="8.40779" fill="#F0F0F0"/>
<circle cx="60.7227" cy="138.962" r="8.40779" fill="#F0F0F0"/>
<circle cx="86.8804" cy="138.962" r="8.40779" fill="#F0F0F0"/>
<circle cx="113.038" cy="138.962" r="8.40779" fill="#F0F0F0"/>
<circle cx="113.038" cy="165.12" r="8.40779" fill="#F0F0F0"/>
<circle cx="86.8804" cy="165.12" r="8.40779" fill="#F0F0F0"/>
<circle cx="60.7227" cy="165.12" r="8.40779" fill="#F0F0F0"/>
<circle cx="34.5655" cy="165.12" r="8.40779" fill="#F0F0F0"/>
<circle cx="8.40779" cy="165.12" r="8.40779" fill="#F0F0F0"/>
<circle cx="113.038" cy="191.277" r="8.40779" fill="#F0F0F0"/>
<circle cx="86.8804" cy="191.277" r="8.40779" fill="#F0F0F0"/>
<circle cx="60.7227" cy="191.277" r="8.40779" fill="#F0F0F0"/>
<circle cx="34.5655" cy="191.277" r="8.40779" fill="#F0F0F0"/>
<circle cx="8.40779" cy="191.277" r="8.40779" fill="#F0F0F0"/>
<circle cx="113.038" cy="217.435" r="8.40779" fill="#F0F0F0"/>
<circle cx="86.8804" cy="217.435" r="8.40779" fill="#F0F0F0"/>
<circle cx="60.7227" cy="217.435" r="8.40779" fill="#F0F0F0"/>
<circle cx="34.5655" cy="217.435" r="8.40779" fill="#F0F0F0"/>
<circle cx="8.40779" cy="217.435" r="8.40779" fill="#F0F0F0"/>
<circle cx="113.038" cy="243.593" r="8.40779" fill="#F0F0F0"/>
<circle cx="86.8804" cy="243.593" r="8.40779" fill="#F0F0F0"/>
<circle cx="60.7227" cy="243.593" r="8.40779" fill="#F0F0F0"/>
<circle cx="34.5655" cy="243.593" r="8.40779" fill="#F0F0F0"/>
<circle cx="8.40779" cy="243.593" r="8.40779" fill="#F0F0F0"/>
</svg>
